<?xml version="1.0" standalone="no"?>
<!DOCTYPE svg PUBLIC "-//W3C//DTD SVG 1.1//EN" "http://www.w3.org/Graphics/SVG/1.1/DTD/svg11.dtd" >
<svg>
<metadata>
Created by FontForge 20090622 at Wed Aug 16 09:35:11 2017
 By deploy user
Copyright &#194;&#169; 2012 by Mojtaba Kia. All rights reserved.
</metadata>
<defs>
<font id="ANegaar" horiz-adv-x="0" >
  <font-face 
    font-family="A Negaar"
    font-weight="400"
    font-stretch="normal"
    units-per-em="2048"
    panose-1="0 0 7 0 0 0 0 0 0 0"
    ascent="1638"
    descent="-410"
    bbox="-192 -1025 2446.12 2181"
    underline-thickness="60"
    underline-position="-840"
    unicode-range="U+0020-U+FEFC"
  />
<missing-glyph horiz-adv-x="908" 
d="M334 621q0 -352 128 -352q127 0 127 352t-127 352q-128 0 -128 -352zM873 621q0 -429 -142.5 -525t-268.5 -96q-97 0 -254.5 96t-157.5 525t152.5 525t259.5 96q116 0 263.5 -96t147.5 -525z" />
    <glyph glyph-name="uFC60" unicode="&#x651;&#x64e;" arabic-form="isolated" 
d="M526 1682q7 -35 7 -66q0 -77 -32 -130q-38 -63 -111 -63q-70 0 -94 68q-38 -105 -139 -105q-96 0 -96 126q0 56 23 104q13 27 35 27q33 0 27 -46q-10 -88 40 -88q73 0 91 129q6 43 36 43q28 0 29 -40q4 -100 63 -100q68 0 50 127q-1 7 -1 15q0 45 32 45q31 0 40 -46z
M516 1865l-384 -120q-6 -2 -15 -2q-44 0 -44 47q0 36 41 49l371 118q10 3 21 3q51 0 51 -48q0 -34 -41 -47z" />
    <glyph glyph-name="uFC61" unicode="&#x651;&#x64f;" arabic-form="isolated" 
d="M543 1591q7 -36 7 -66q0 -78 -32 -130q-38 -63 -111 -63q-70 0 -94 68q-38 -105 -139 -105q-96 0 -96 126q0 55 23 104q13 27 35 27q32 0 27 -46q-11 -88 40 -88q73 0 91 129q6 43 36 43q28 0 29 -40q4 -100 63 -100q68 0 50 127q-1 7 -1 15q0 45 32 45q31 0 40 -46z
M558 2009q0 -106 -101 -183q36 -25 36 -53q0 -34 -40 -34q-31 0 -67 28q-220 -116 -308 -116q-52 0 -52 43q0 34 41 45q149 39 240 97q-44 46 -44 103q0 69 51.5 126t120.5 57q49 0 86 -32.5t37 -80.5zM470 1975q0 57 -55 57q-26 0 -48.5 -26.5t-22.5 -53.5q0 -45 47 -70
q27 8 53 37t26 56z" />
    <glyph glyph-name="uE818" unicode="&#x651;&#x64b;" 
d="M509 1696q7 -35 7 -66q0 -78 -32 -130q-38 -63 -111 -63q-70 0 -94 68q-38 -105 -139 -105q-96 0 -96 126q0 55 23 104q13 27 35 27q33 0 27 -46q-10 -88 40 -88q73 0 91 129q6 43 36 43q28 0 29 -40q4 -100 63 -100q68 0 50 127q-1 7 -1 15q0 45 32 45q31 0 40 -46z
M483 2086l-385 -120q-7 -2 -15 -2q-44 0 -44 47q0 35 42 49l371 118q9 3 21 3q50 0 50 -48q0 -35 -40 -47zM492 1884l-384 -120q-7 -2 -15 -2q-44 0 -44 47q0 36 41 49l371 118q9 3 21 3q51 0 51 -48q0 -35 -41 -47z" />
    <glyph glyph-name="uFC5E" unicode="&#x651;&#x64c;" arabic-form="isolated" 
d="M515 1610q7 -36 7 -66q0 -78 -32 -130q-39 -63 -111 -63q-70 0 -94 68q-38 -105 -139 -105q-96 0 -96 126q0 55 23 104q12 27 35 27q32 0 27 -46q-11 -88 40 -88q73 0 91 129q6 43 36 43q27 0 29 -40q3 -100 63 -100q67 0 50 127q-1 7 -1 15q0 45 32 45q30 0 40 -46z
M538 2030q0 -106 -101 -183q36 -25 36 -53q0 -34 -40 -34q-31 0 -67 28q-220 -116 -308 -116q-52 0 -52 43q0 34 41 45q68 18 68 79q0 28 -39 28q-28 0 -53 -15q-15 -9 -26 -9q-24 0 -24 25q0 20 19 39q41 41 103 41q92 0 92 -84q0 -30 -17 -66q58 22 117 59q-44 46 -44 103
q0 69 51.5 126t120.5 57q49 0 86 -32.5t37 -80.5zM450 1996q0 57 -55 57q-27 0 -49 -26.5t-22 -53.5q0 -45 47 -70q27 8 53 37t26 56z" />
    <glyph glyph-name="uFC62" unicode="&#x651;&#x650;" arabic-form="isolated" 
d="M518 1965q7 -35 7 -66q0 -77 -32 -130q-38 -63 -111 -63q-70 0 -94 68q-38 -105 -139 -105q-96 0 -96 126q0 56 23 104q12 27 35 27q32 0 27 -46q-11 -88 40 -88q73 0 91 129q6 43 36 43q27 0 29 -40q3 -100 63 -100q67 0 50 127q-1 7 -1 15q0 45 32 45q31 0 40 -46z
M502 1553l-384 -120q-6 -2 -15 -2q-44 0 -44 47q0 36 41 49l371 118q10 3 21 3q51 0 51 -48q0 -34 -41 -47z" />
    <glyph glyph-name="uFC5F" unicode="&#x651;&#x64d;" arabic-form="isolated" 
d="M526 2106q7 -35 7 -66q0 -77 -32 -130q-38 -63 -111 -63q-70 0 -94 68q-38 -105 -139 -105q-96 0 -96 126q0 56 23 104q13 27 35 27q33 0 27 -46q-10 -88 40 -88q73 0 91 129q6 43 36 43q28 0 29 -40q4 -100 63 -100q68 0 50 127q-1 7 -1 15q0 45 32 45q31 0 40 -46z
M491 1666l-385 -120q-6 -2 -15 -2q-44 0 -44 47q0 36 42 49l371 118q10 3 21 3q50 0 50 -48q0 -34 -40 -47zM500 1473l-384 -119q-6 -2 -15 -2q-44 0 -44 46q0 36 41 49l372 119q9 3 20 3q51 0 51 -48q0 -35 -41 -48z" />
    <glyph glyph-name="uFEF5" unicode="&#xfedf;&#xfe82;" horiz-adv-x="1000" arabic-form="isolated" 
d="M160 1142q3 184 107 184h2q105 -1 106 -173v-590q-1 -172 -106 -173h-2q-104 0 -107 184v568zM471 229q221 6 227 257l-1 666q1 172 106 173h2q104 0 107 -184l-1 -672q0 -245 -119 -352q-84 -77 -265 -77h-328q-114 6 -114 107v2q1 80 131 80h255zM414 1595
q89 0 133.5 30.5t58.5 30.5q38 0 42 -48v-10q-8 -59 -87 -97t-133 -38q-73 2 -141 42q-30 18 -57 18q-74 0 -152 -68q-24 -15 -40 -15h1q-38 5 -39 53v4q0 80 104 126q67 30 102 30q29 0 63 -15q95 -43 145 -43z" />
    <glyph glyph-name="uFEF6" unicode="&#xfee0;&#xfe82;" horiz-adv-x="1036" arabic-form="final" 
d="M199 40q-114 6 -114 107v2q1 81 94 81v-1h292q221 6 227 257l-1 666q1 172 106 173h2q104 0 107 -184l-2 -671v-44q5 -197 119 -197h21v-189h-26q-108 0 -157 159q-61 -69 -75 -83q-83 -76 -236 -76h-357zM165 1142q3 184 107 184h2q105 -1 106 -173v-590
q-1 -172 -106 -173h-2q-104 0 -107 184v568zM414 1595q89 0 133.5 30.5t58.5 30.5q38 0 42 -48v-10q-8 -59 -87 -97t-133 -38q-73 2 -141 42q-30 18 -57 18q-74 0 -152 -68q-24 -15 -40 -15h1q-38 5 -39 53v4q0 80 104 126q67 30 102 30q29 0 63 -15q95 -43 145 -43z" />
    <glyph glyph-name="uFEF7" unicode="&#xfedf;&#xfe84;" horiz-adv-x="1000" arabic-form="isolated" 
d="M160 1142q3 184 107 184h2q105 -1 106 -173v-590q-1 -172 -106 -173h-2q-104 0 -107 184v568zM471 229q221 6 227 257l-1 666q1 172 106 173h2q104 0 107 -184l-1 -672q0 -245 -119 -352q-84 -77 -265 -77h-328q-114 6 -114 107v2q1 80 131 80h255zM471 1439
q0 -39 -55 -39h-242q-77 0 -77 39q0 29 124 29q-62 66 -65 102v20q0 133 148 133q147 0 147 -88v-35q0 -30 -42 -30h-5q-33 0 -33 27q0 47 -59 47t-59 -83q0 -84 75 -84h88q55 0 55 -38z" />
    <glyph glyph-name="uFEF8" unicode="&#xfee0;&#xfe84;" horiz-adv-x="1036" arabic-form="final" 
d="M199 40q-114 6 -114 107v2q1 81 94 81v-1h53l73 1l1 -1h165q221 6 227 257l-1 666q1 172 106 173h2q104 0 107 -184l-2 -671v-44q5 -197 119 -197h21v-189h-26q-108 0 -157 159q-61 -69 -75 -83q-83 -76 -236 -76h-357zM165 1142q3 184 107 184h2q105 -1 106 -173v-590
q-1 -172 -106 -173h-2q-104 0 -107 184v568zM471 1439q0 -39 -55 -39h-242q-77 0 -77 39q0 29 124 29q-62 66 -65 102v20q0 133 148 133q147 0 147 -88v-35q0 -30 -42 -30h-5q-33 0 -33 27q0 47 -59 47t-59 -83q0 -84 75 -84h88q55 0 55 -38z" />
    <glyph glyph-name="uFEF9" unicode="&#xfedf;&#xfe88;" horiz-adv-x="1000" arabic-form="isolated" 
d="M160 1142q3 184 107 184h2q105 -1 106 -173v-590q-1 -172 -106 -173h-2q-104 0 -107 184v568zM471 229q221 6 227 257l-1 666q1 172 106 173h2q104 0 107 -184l-1 -672q0 -245 -119 -352q-84 -77 -265 -77h-328q-114 6 -114 107v2q1 80 131 80h255zM471 -358
q0 -39 -55 -39h-242q-77 0 -77 39q0 29 124 29q-62 66 -65 102v20q0 133 148 133q147 0 147 -88v-35q0 -30 -42 -30h-5q-33 0 -33 27q0 47 -59 47t-59 -83q0 -84 75 -84h88q55 0 55 -38z" />
    <glyph glyph-name="uFEFA" unicode="&#xfee0;&#xfe88;" horiz-adv-x="1036" arabic-form="final" 
d="M199 40q-114 6 -114 107v2q1 81 94 81v-1h53l73 1l1 -1h165q221 6 227 257l-1 666q1 172 106 173h2q104 0 107 -184l-2 -671v-44q5 -197 119 -197h21v-189h-26q-108 0 -157 159q-61 -69 -75 -83q-83 -76 -236 -76h-357zM165 1142q3 184 107 184h2q105 -1 106 -173v-590
q-1 -172 -106 -173h-2q-104 0 -107 184v568zM471 -358q0 -39 -55 -39h-242q-77 0 -77 39q0 29 124 29q-62 66 -65 102v20q0 133 148 133q147 0 147 -88v-35q0 -30 -42 -30h-5q-33 0 -33 27q0 47 -59 47t-59 -83q0 -84 75 -84h88q55 0 55 -38z" />
    <glyph glyph-name="uFEFB" unicode="&#xfedf;&#xfe8e;" horiz-adv-x="1000" arabic-form="isolated" 
d="M160 1142q3 184 107 184h2q105 -1 106 -173v-590q-1 -172 -106 -173h-2q-104 0 -107 184v568zM471 229q221 6 227 257l-1 666q1 172 106 173h2q104 0 107 -184l-1 -672q0 -245 -119 -352q-84 -77 -265 -77h-328q-114 6 -114 107v2q1 80 131 80h255z" />
    <glyph glyph-name="uFEFC" unicode="&#xfee0;&#xfe8e;" horiz-adv-x="1036" arabic-form="final" 
d="M199 40q-114 6 -114 107v2q1 81 94 81v-1h292q221 6 227 257l-1 666q1 172 106 173h2q104 0 107 -184l-2 -671v-44q5 -197 119 -197h21v-189h-26q-108 0 -157 159q-61 -69 -75 -83q-83 -76 -236 -76h-357zM165 1142q3 184 107 184h2q105 -1 106 -173v-590
q-1 -172 -106 -173h-2q-104 0 -107 184v568z" />
    <glyph glyph-name="uFDF2" unicode="&#xfedf;&#xfee0;&#xfeea;" horiz-adv-x="2188" arabic-form="isolated" 
d="M1004 40q-365 18 -384 280v102q0 162 -148 162q-147 0 -148 -162v-2q0 -122 98 -154q96 0 96 -95q1 -3 1 1q0 -86 -76 -107q-26 -4 -52 -4q-112 0 -190 81q-76 92 -76 270q0 53 7 111q29 243 346 243h2q53 -4 146 -21v61q3 164 107 164h2q85 -1 86 -153v-368
q27 -220 178 -220h8q225 0 228 187l-1 471q1 172 106 173h2q104 0 107 -184l-1 -407v-43q4 -197 188 -197h42q161 7 167 257v514q0 160 104 160h11q98 0 98 -169v-522q0 -245 -119 -352q-84 -77 -258 -77h-70q-180 0 -267 220q-98 -220 -317 -220h-23zM1359 1451
q-3 -44 -25 -45h-3q-10 0 -10 34v138q2 25 25 26h3q10 0 10 -34v-119zM1464 1335q4 -18 4 -35q0 -41 -17 -69q-21 -34 -60 -34q-37 0 -50 36q-20 -56 -74 -56q-52 0 -52 67q0 30 13 56q6 15 18 15q18 0 15 -25q-6 -47 21 -47q39 0 49 69q3 23 19 23q15 0 16 -22
q2 -53 33 -53q37 0 27 68v8q0 24 17 24q16 0 21 -25z" />
    <glyph glyph-name="u0622" unicode="&#x622;" horiz-adv-x="470" arabic-form="isolated" 
d="M125 976q3 184 107 184h2q105 -1 106 -173v-774q-1 -172 -106 -173h-2q-104 0 -107 184v752zM326 1432q89 0 133.5 30.5t58.5 30.5q38 0 42 -48v-10q-8 -59 -87 -97t-133 -38q-73 2 -141 42q-30 18 -57 18q-74 0 -152 -68q-24 -15 -40 -15h1q-38 5 -39 53v4q0 80 104 126
q67 30 102 30q29 0 63 -15q95 -43 145 -43z" />
    <glyph glyph-name="Hcircumflex" unicode="&#x622;" horiz-adv-x="571" arabic-form="final" 
d="M340 987l-1 -501q6 -251 227 -257h13v-189h-53q-17 -1 -33 -1q-163 0 -248 78q-119 107 -119 352l-1 507q3 184 107 184h2q105 -1 106 -173zM331 1432q89 0 133.5 30.5t58.5 30.5q38 0 42 -48v-10q-8 -59 -87 -97t-133 -38q-73 2 -141 42q-30 18 -57 18q-74 0 -152 -68
q-24 -15 -40 -15h1q-38 5 -39 53v4q0 80 104 126q67 30 102 30q29 0 63 -15q95 -43 145 -43z" />
    <glyph glyph-name="u0623" unicode="&#x623;" horiz-adv-x="543" arabic-form="isolated" 
d="M169 976q3 184 107 184h2q105 -1 106 -173v-774q-1 -172 -106 -173h-2q-104 0 -107 184v752zM442 1285q0 -35 -50 -35h-222q-70 0 -70 35q0 27 113 27q-56 60 -59 93v19q0 121 135 121q134 0 134 -80v-32q0 -28 -38 -28h-5q-30 0 -30 25q0 43 -53 43q-55 0 -55 -76
q0 -77 69 -77h81q50 0 50 -35z" />
    <glyph glyph-name="uFE84" unicode="&#x623;" horiz-adv-x="600" arabic-form="final" 
d="M384 987l-1 -501q6 -251 227 -257h13v-189h-53q-17 -1 -33 -1q-163 0 -248 78q-119 107 -119 352l-1 507q3 184 107 184h2q105 -1 106 -173zM442 1285q0 -35 -50 -35h-222q-70 0 -70 35q0 27 113 27q-56 60 -59 93v19q0 121 135 121q134 0 134 -80v-32q0 -28 -38 -28h-5
q-30 0 -30 25q0 43 -53 43q-55 0 -55 -76q0 -77 69 -77h81q50 0 50 -35z" />
    <glyph glyph-name="u0624" unicode="&#x624;" horiz-adv-x="900" arabic-form="isolated" 
d="M600 940q0 -35 -50 -35h-222q-70 0 -70 35q0 27 113 27q-56 60 -59 93v19q0 121 135 121q134 0 134 -80v-32q0 -28 -38 -28h-5q-30 0 -30 25q0 43 -53 43q-55 0 -55 -76q0 -77 69 -77h81q50 0 50 -35zM783 66q-44 -204 -143 -315.5t-249 -161.5q-37 -8 -69 -8
q-67 0 -106 36q-41 38 -41 78q0 14 5 28q19 43 94 59q184 30 243 101q120 118 131 308q1 29 1 57q0 143 -43 233q-33 81 -134 81q-147 0 -148 -162v-2q0 -122 96 -154q97 -6 115 -50q8 -21 8 -41q0 -25 -11 -50q-22 -46 -89 -60q-26 -4 -52 -4q-112 0 -190 81
q-76 92 -76 270q0 53 7 111q29 243 346 243h2q237 -14 297 -139q35 -88 35 -198q4 -212 -29 -341z" />
    <glyph glyph-name="uFE86" unicode="&#x624;" horiz-adv-x="964" arabic-form="final" 
d="M783 135q3 -14 3 -32q0 -17 -3 -37q-44 -204 -143 -315.5t-249 -161.5q-37 -8 -69 -8q-67 0 -106 36q-41 38 -41 78q0 14 5 28q19 43 94 59q184 30 243 101q120 118 131 308q1 29 1 57q0 143 -43 233q-33 81 -134 81q-147 0 -148 -162v-2q0 -122 96 -154q97 -6 115 -50
q8 -21 8 -41q0 -25 -11 -50q-22 -46 -89 -60q-26 -4 -52 -4q-112 0 -190 81q-76 92 -76 270q0 53 7 111q29 243 346 243h2q237 -14 297 -139q35 -88 35 -198q0 -20 -1 -45q19 -133 136 -133h35v-189q-161 2 -199 95zM610 940q0 -35 -50 -35h-222q-70 0 -70 35q0 27 113 27
q-56 60 -59 93v19q0 121 135 121q134 0 134 -80v-32q0 -28 -38 -28h-5q-30 0 -30 25q0 43 -53 43q-55 0 -55 -76q0 -77 69 -77h81q50 0 50 -35z" />
    <glyph glyph-name="u0625" unicode="&#x625;" horiz-adv-x="543" arabic-form="isolated" 
d="M187 1142q4 184 107 184h2q105 -1 106 -173v-940q-1 -172 -106 -173h-2q-103 0 -107 184v918zM466 -365q0 -35 -50 -35h-222q-70 0 -70 35q0 27 113 27q-56 60 -59 93v19q0 121 135 121q134 0 134 -80v-32q0 -28 -38 -28h-5q-30 0 -30 25q0 43 -53 43q-55 0 -55 -76
q0 -77 69 -77h81q50 0 50 -35z" />
    <glyph glyph-name="uFE88" unicode="&#x625;" horiz-adv-x="548" arabic-form="final" 
d="M325 1153l-1 -667q6 -251 227 -257h13v-189h-53q-17 -1 -33 -1q-163 0 -248 78q-119 107 -119 352l-1 673q3 184 107 184h2q105 -1 106 -173zM410 -260q0 -35 -50 -35h-222q-70 0 -70 35q0 27 113 27q-56 60 -59 93v19q0 121 135 121q134 0 134 -80v-32q0 -28 -38 -28h-5
q-30 0 -30 25q0 43 -53 43q-55 0 -55 -76q0 -77 69 -77h81q50 0 50 -35z" />
    <glyph glyph-name="u0626" unicode="&#x626;" horiz-adv-x="1400" arabic-form="isolated" 
d="M673 -53h100q24 0 60 2q126 11 206 66q73 50 109 186h-327q-192 1 -192 176q0 204 112 361q102 140 339 140h50q129 0 129 -92q0 -103 -128 -104l-42 1q-265 -4 -294 -297h312q235 0 235 -157q0 -168 -65.5 -246t-114.5 -113q-80 -65 -175 -84q-53 -13 -119 -19h-123
q-127 0 -219 20q-95 20 -196.5 82t-145.5 130.5t-55 177.5q-4 37 -4 70q0 70 15 124l63 190q52 159 135 159q10 0 22 -2q67 -14 67 -81q0 -29 -10 -65l-74 -217q-19 -61 -19 -114q0 -197 244 -277q55 -13 105 -17zM754 831q0 -35 -50 -35h-222q-70 0 -70 35q0 27 113 27
q-56 60 -59 93v19q0 121 135 121q134 0 134 -80v-32q0 -28 -38 -28h-5q-30 0 -30 25q0 43 -53 43q-55 0 -55 -76q0 -77 69 -77h81q50 0 50 -35z" />
    <glyph glyph-name="uFE8A" unicode="&#x626;" horiz-adv-x="1100" arabic-form="final" 
d="M34 -58q-4 37 -4 70q0 70 15 124l85 253q33 105 97 105q18 0 38 -6q69 -21 69 -84q0 -29 -12 -66l-74 -218q-19 -61 -19 -114q0 -197 245 -277q65 -12 147 -12h61q21 0 88 3l130 30q-263 243 -263 310q-10 0 -12 29q1 51 61 96q58 44 215 44h216v-189h-259
q223 -176 223 -238l4 -40q0 -90 -65 -152.5t-237 -77.5h-133q-127 0 -219 20q-95 20 -196.5 82t-145.5 130.5t-55 177.5zM800 435q0 -35 -50 -35h-222q-70 0 -70 35q0 27 113 27q-56 60 -59 93v19q0 121 135 121q134 0 134 -80v-32q0 -28 -38 -28h-5q-30 0 -30 25
q0 43 -53 43q-55 0 -55 -76q0 -77 69 -77h81q50 0 50 -35z" />
    <glyph glyph-name="uFE8B" unicode="&#x626;" horiz-adv-x="600" arabic-form="initial" 
d="M-34 229h49q313 0 313 291v112q0 128 103 128q92 0 92 -129v-120q0 -257 -140 -359q-157 -112 -355 -112h-62v189zM412 916q0 -39 -55 -39h-242q-77 0 -77 39q0 29 124 29q-62 66 -65 102v20q0 133 148 133q147 0 147 -88v-35q0 -30 -42 -30h-5q-33 0 -33 27q0 47 -59 47
t-59 -83q0 -84 75 -84h88q55 0 55 -38z" />
    <glyph glyph-name="uFE8C" unicode="&#x626;" horiz-adv-x="754" arabic-form="medial" 
d="M567 556q10 -326 179 -327h23v-189h-23q-149 1 -267 155l-52 -42q-157 -112 -406 -112l-41 -1v190h40q352 0 352 291l-1 112q1 128 104 128q92 0 92 -129v-76zM472 916q0 -39 -55 -39h-242q-77 0 -77 39q0 29 124 29q-62 66 -65 102v20q0 133 148 133q147 0 147 -88v-35
q0 -30 -42 -30h-5q-33 0 -33 27q0 47 -59 47t-59 -83q0 -84 75 -84h88q55 0 55 -38z" />
    <glyph glyph-name="u0627" unicode="&#x627;" horiz-adv-x="470" arabic-form="isolated" 
d="M125 1142q3 184 107 184h2q105 -1 106 -173v-940q-1 -172 -106 -173h-2q-104 0 -107 184v918z" />
    <glyph glyph-name="uFE8E" unicode="&#x627;" horiz-adv-x="569" arabic-form="final" 
d="M350 1153l-1 -667q6 -251 227 -257h13v-189h-53q-17 -1 -33 -1q-163 0 -248 78q-119 107 -119 352l-1 673q3 184 107 184h2q105 -1 106 -173z" />
    <glyph glyph-name="u0628" unicode="&#x628;" horiz-adv-x="1600" arabic-form="isolated" 
d="M126 503q6 152 75 235q78 81 190 81q26 0 52 -4q76 -21 76 -107q0 4 -1 2q-1 -90 -98 -96q-96 -32 -96 -154q0 -24 5 -43q47 -121 198 -164q81 -24 254 -24h321q241 0 241 291l-1 112q1 128 104 128q92 0 92 -129v-120q0 -257 -140 -358q-116 -109 -320 -113h-367
q-117 0 -217 16q-146 24 -234 83q-36 24 -72.5 75t-55.5 144q-7 57 -7 110q0 16 1 35zM875 -140q95 0 95 -88q0 -89 -95 -89q-96 0 -96 89q0 88 96 88z" />
    <glyph glyph-name="uFE90" unicode="&#x628;" horiz-adv-x="1670" arabic-form="final" 
d="M1548 514q20 -285 137 -285v-189q-109 0 -193 110l-23 51q-98 -146 -381 -161h-367q-117 0 -217 16q-146 24 -234 83q-36 24 -72.5 75t-55.5 144q-7 57 -7 110q0 16 1 35q6 152 75 235q78 81 190 81q26 0 52 -4q75 -21 75 -106v-2q-1 -87 -98 -93q-96 -32 -96 -154
q0 -24 5 -43q47 -121 198 -164q81 -24 254 -24h321q241 0 241 291l-1 112q1 128 104 128q92 0 92 -129v-117zM885 -140q95 0 95 -88q0 -89 -95 -89q-96 0 -96 89q0 88 96 88z" />
    <glyph glyph-name="uFE91" unicode="&#x628;" horiz-adv-x="600" arabic-form="initial" 
d="M210 -140q95 0 95 -88q0 -89 -95 -89q-96 0 -96 89q0 88 96 88zM-19 229h-1q353 0 353 291v112q0 128 103 128q92 0 92 -129v-120q0 -257 -140 -359q-157 -112 -395 -112h-12v189z" />
    <glyph glyph-name="uFE92" unicode="&#x628;" horiz-adv-x="754" arabic-form="medial" 
d="M567 556q10 -326 179 -327h23v-189h-23q-149 1 -267 155l-52 -42q-157 -112 -406 -112l-41 -1v190h40q352 0 352 291l-1 112q1 128 104 128q92 0 92 -129v-76zM210 -140q95 0 95 -88q0 -89 -95 -89q-96 0 -96 89q0 88 96 88z" />
    <glyph glyph-name="u067E" unicode="&#x67e;" horiz-adv-x="1668" arabic-form="isolated" 
d="M717 -141q95 0 95 -88q0 -89 -95 -89q-96 0 -96 89q0 88 96 88zM1013 -140q95 0 95 -88q0 -89 -95 -89q-96 0 -96 89q0 88 96 88zM868 -388q95 0 95 -88q0 -89 -95 -89q-96 0 -96 89q0 88 96 88zM126 503q6 152 75 235q78 81 190 81q26 0 52 -4q75 -21 75 -106v-2
q-1 -87 -98 -93q-96 -32 -96 -154q0 -24 5 -43q47 -121 198 -164q81 -24 254 -24h321q241 0 241 291l-1 112q1 128 104 128q92 0 92 -129v-120q0 -257 -140 -358q-116 -109 -320 -113h-367q-117 0 -217 16q-146 24 -234 83q-36 24 -72.5 75t-55.5 144q-7 57 -7 110
q0 16 1 35z" />
    <glyph glyph-name="uFB57" unicode="&#x67e;" horiz-adv-x="1670" arabic-form="final" 
d="M727 -141q95 0 95 -88q0 -89 -95 -89q-96 0 -96 89q0 88 96 88zM1023 -140q95 0 95 -88q0 -89 -95 -89q-96 0 -96 89q0 88 96 88zM878 -388q95 0 95 -88q0 -89 -95 -89q-96 0 -96 89q0 88 96 88zM1548 514q20 -285 137 -285v-189q-109 0 -193 110l-23 51
q-98 -146 -381 -161h-367q-117 0 -217 16q-146 24 -234 83q-36 24 -72.5 75t-55.5 144q-7 57 -7 110q0 16 1 35q6 152 75 235q78 81 190 81q26 0 52 -4q75 -21 75 -106v-2q-1 -87 -98 -93q-96 -32 -96 -154q0 -24 5 -43q47 -121 198 -164q81 -24 254 -24h321q241 0 241 291
l-1 112q1 128 104 128q92 0 92 -129v-117z" />
    <glyph glyph-name="uFB58" unicode="&#x67e;" horiz-adv-x="718" arabic-form="initial" 
d="M-19 229h49q353 0 353 291v112q0 128 103 128q92 0 92 -129v-120q0 -257 -140 -359q-157 -112 -395 -112h-62v189zM93 -141q95 0 95 -88q0 -89 -95 -89q-96 0 -96 89q0 88 96 88zM389 -140q95 0 95 -88q0 -89 -95 -89q-96 0 -96 89q0 88 96 88zM244 -388q95 0 95 -88
q0 -89 -95 -89q-96 0 -96 89q0 88 96 88z" />
    <glyph glyph-name="uFB59" unicode="&#x67e;" horiz-adv-x="754" arabic-form="medial" 
d="M567 556q10 -326 179 -327h23v-189h-23q-149 1 -267 155l-52 -42q-157 -112 -406 -112l-41 -1v190h40q352 0 352 291l-1 112q1 128 104 128q92 0 92 -129v-76zM103 -141q95 0 95 -88q0 -89 -95 -89q-96 0 -96 89q0 88 96 88zM399 -140q95 0 95 -88q0 -89 -95 -89
q-96 0 -96 89q0 88 96 88zM254 -388q95 0 95 -88q0 -89 -95 -89q-96 0 -96 89q0 88 96 88z" />
    <glyph glyph-name="u062A" unicode="&#x62a;" horiz-adv-x="1600" arabic-form="isolated" 
d="M678 913q0 89 96 89q95 0 95 -89q0 -88 -95 -88q-96 0 -96 88zM974 912q0 89 96 89q95 0 95 -89q0 -88 -95 -88q-96 0 -96 88zM126 503q6 152 75 235q78 81 190 81q26 0 52 -4q75 -21 75 -106v-2q-1 -87 -98 -93q-96 -32 -96 -154q0 -24 5 -43q47 -121 198 -164
q81 -24 254 -24h321q241 0 241 291l-1 112q1 128 104 128q92 0 92 -129v-120q0 -257 -140 -358q-116 -109 -320 -113h-367q-117 0 -217 16q-146 24 -234 83q-36 24 -72.5 75t-55.5 144q-7 57 -7 110q0 16 1 35z" />
    <glyph glyph-name="uFE96" unicode="&#x62a;" horiz-adv-x="1670" arabic-form="final" 
d="M1548 514q20 -285 137 -285v-189q-109 0 -193 110l-23 51q-52 -42 -61 -48q-166 -113 -320 -113h-367q-117 0 -217 16q-146 24 -234 83q-36 24 -72.5 75t-55.5 144q-7 57 -7 110q0 16 1 35q6 152 75 235q78 81 190 81q26 0 52 -4q75 -21 75 -106v-2q-1 -87 -98 -93
q-96 -32 -96 -154q0 -24 5 -43q47 -121 198 -164q81 -24 254 -24h321q241 0 241 291l-1 112q1 128 104 128q92 0 92 -129v-117zM688 913q0 89 96 89q95 0 95 -89q0 -88 -95 -88q-96 0 -96 88zM984 912q0 89 96 89q95 0 95 -89q0 -88 -95 -88q-96 0 -96 88z" />
    <glyph glyph-name="uFE97" unicode="&#x62a;" horiz-adv-x="600" arabic-form="initial" 
d="M-24 1019q0 89 96 89q95 0 95 -89q0 -88 -95 -88q-96 0 -96 88zM272 1018q0 89 96 89q95 0 95 -89q0 -88 -95 -88q-96 0 -96 88zM-20 229h-1q353 0 353 291v112q0 128 103 128q92 0 92 -129v-120q0 -257 -140 -359q-157 -112 -395 -112h-12v189z" />
    <glyph glyph-name="uFE98" unicode="&#x62a;" horiz-adv-x="754" arabic-form="medial" 
d="M567 556q10 -326 179 -327h23v-189h-23q-149 1 -267 155l-52 -42q-157 -112 -406 -112l-41 -1v190h40q352 0 352 291l-1 112q1 128 104 128q92 0 92 -129v-76zM-14 1019q0 89 96 89q95 0 95 -89q0 -88 -95 -88q-96 0 -96 88zM282 1018q0 89 96 89q95 0 95 -89
q0 -88 -95 -88q-96 0 -96 88z" />
    <glyph glyph-name="u062B" unicode="&#x62b;" horiz-adv-x="1668" arabic-form="isolated" 
d="M688 913q0 89 96 89q95 0 95 -89q0 -88 -95 -88q-96 0 -96 88zM984 912q0 89 96 89q95 0 95 -89q0 -88 -95 -88q-96 0 -96 88zM839 1160q0 89 96 89q95 0 95 -89q0 -88 -95 -88q-96 0 -96 88zM126 503q6 152 75 235q78 81 190 81q26 0 52 -4q75 -21 75 -106v-2
q-1 -87 -98 -93q-96 -32 -96 -154q0 -24 5 -43q47 -121 198 -164q81 -24 254 -24h321q241 0 241 291l-1 112q1 128 104 128q92 0 92 -129v-120q0 -257 -140 -358q-116 -109 -320 -113h-367q-117 0 -217 16q-146 24 -234 83q-36 24 -72.5 75t-55.5 144q-7 57 -7 110
q0 16 1 35z" />
    <glyph glyph-name="uFE9A" unicode="&#x62b;" horiz-adv-x="1670" arabic-form="final" 
d="M698 913q0 89 96 89q95 0 95 -89q0 -88 -95 -88q-96 0 -96 88zM994 912q0 89 96 89q95 0 95 -89q0 -88 -95 -88q-96 0 -96 88zM849 1160q0 89 96 89q95 0 95 -89q0 -88 -95 -88q-96 0 -96 88zM1548 514q20 -285 137 -285v-189q-109 0 -193 110l-23 51q-98 -146 -381 -161
h-367q-117 0 -217 16q-146 24 -234 83q-36 24 -72.5 75t-55.5 144q-7 57 -7 110q0 16 1 35q6 152 75 235q78 81 190 81q26 0 52 -4q75 -21 75 -106v-2q-1 -87 -98 -93q-96 -32 -96 -154q0 -24 5 -43q47 -121 198 -164q81 -24 254 -24h321q241 0 241 291l-1 112
q1 128 104 128q92 0 92 -129v-117z" />
    <glyph glyph-name="uFE9B" unicode="&#x62b;" horiz-adv-x="657" arabic-form="initial" 
d="M-20 229h-1q353 0 353 291v112q0 128 103 128q92 0 92 -129v-120q0 -257 -140 -359q-157 -112 -395 -112h-12v189zM-4 1019q0 89 96 89q95 0 95 -89q0 -88 -95 -88q-96 0 -96 88zM292 1018q0 89 96 89q95 0 95 -89q0 -88 -95 -88q-96 0 -96 88zM147 1266q0 89 96 89
q95 0 95 -89q0 -88 -95 -88q-96 0 -96 88z" />
    <glyph glyph-name="uFE9C" unicode="&#x62b;" horiz-adv-x="754" arabic-form="medial" 
d="M567 556q10 -326 179 -327h23v-189h-23q-149 1 -267 155l-52 -42q-157 -112 -406 -112l-41 -1v190h40q352 0 352 291l-1 112q1 128 104 128q92 0 92 -129v-76zM-4 1019q0 89 96 89q95 0 95 -89q0 -88 -95 -88q-96 0 -96 88zM292 1018q0 89 96 89q95 0 95 -89
q0 -88 -95 -88q-96 0 -96 88zM147 1266q0 89 96 89q95 0 95 -89q0 -88 -95 -88q-96 0 -96 88z" />
    <glyph glyph-name="u062C" unicode="&#x62c;" horiz-adv-x="1200" arabic-form="isolated" 
d="M801 -229q0 89 96 89q95 0 95 -89q0 -88 -95 -88q-96 0 -96 88zM325 -152q0 -21 5 -46l3 -7q32 -112 164 -112q20 0 43 5q18 4 33 4q41 0 64 -37q10 -15 13 -29q3 -10 3 -19q0 -31 -24 -66q-30 -44 -95 -60q-31 -8 -69 -9q-107 0 -212 89q-74 65 -101 142q-26 71 -27 140
v42q0 111 67 196q100 102 183.5 124t262.5 35q168 0 168 148q0 153 -107 238q-42 32 -91 32q-88 0 -190 -108q-93 -93 -160 -93h-4q-38 0 -71 37q-18 20 -18 50q0 9 1 18q5 58 49 111q117 145 257 203q49 20 106 20q97 0 217 -59q187 -91 205 -341q5 -176 58 -245
q38 -50 97 -50q12 0 23 3q9 1 21 7q0 -19 -32 -69q-49 -77 -240 -96q-59 -6 -129 -6q-81 7 -151 7q-97 0 -169 -14q-153 -29 -153 -185z" />
    <glyph glyph-name="uFE9E" unicode="&#x62c;" horiz-adv-x="1145" arabic-form="final" 
d="M1026 351q14 -61 45 -96q36 -26 73 -26h15v-189h-21q-137 3 -209 154q-105 -136 -241 -150q-19 -2 -36 -3q-6 1 -15 1q-20 1 -40 1q-59 0 -110 -10q-152 -29 -152 -185q0 -21 5 -46l3 -7q32 -112 164 -112q20 0 43 5q18 4 33 4q41 0 64 -37q10 -15 13 -29q3 -10 3 -19
q0 -31 -24 -66q-30 -44 -95 -60q-31 -8 -69 -9q-107 0 -212 89q-74 65 -101 142q-26 71 -27 140v42q0 111 67 196q100 102 183.5 124t262.5 35q168 0 168 148q0 153 -107 238q-42 32 -91 32q-88 0 -190 -108q-93 -93 -160 -93h-4q-38 0 -71 37q-18 20 -18 50q0 9 1 18
q5 58 49 111q117 145 257 203q49 20 106 20q97 0 217 -59q187 -91 205 -340v-6q3 -84 16 -140zM811 -229q0 89 96 89q95 0 95 -89q0 -88 -95 -88q-96 0 -96 88z" />
    <glyph glyph-name="uFE9F" unicode="&#x62c;" horiz-adv-x="1102" arabic-form="initial" 
d="M222 -229q0 89 96 89q95 0 95 -89q0 -88 -95 -88q-96 0 -96 88zM-21 229h482q194 14 194 159q0 153 -107 238q-42 32 -91 32q-88 0 -190 -108q-93 -93 -160 -93h-4q-38 0 -71 37q-18 20 -18 50q0 9 1 18q5 58 49 111q117 145 257 203q49 20 106 20q97 0 217 -59
q187 -91 205 -341q5 -176 58 -245q38 -50 97 -50q12 0 23 3q9 1 21 7q0 -19 -32 -69q-49 -77 -240 -96q-59 -6 -131 -6l-143 -1h-523v190z" />
    <glyph glyph-name="uFEA0" unicode="&#x62c;" horiz-adv-x="982" arabic-form="medial" 
d="M429 40h-450v189h482q194 14 194 159q0 153 -107 238q-42 32 -91 32q-88 0 -190 -108q-93 -93 -160 -93h-4q-38 0 -71 37q-18 20 -18 50q0 9 1 18q5 58 49 111q117 145 257 203q49 20 106 20q97 0 217 -59q187 -91 205 -340q0 -14 1 -105q14 -94 53 -137q36 -26 73 -26
h15v-189h-21q-137 3 -209 154q-114 -148 -332 -154zM222 -229q0 89 96 89q95 0 95 -89q0 -88 -95 -88q-96 0 -96 88z" />
    <glyph glyph-name="u0686" unicode="&#x686;" horiz-adv-x="1200" arabic-form="isolated" 
d="M325 -152q0 -21 5 -46l3 -7q32 -112 164 -112q20 0 43 5q18 4 33 4q41 0 64 -37q10 -15 13 -29q3 -10 3 -19q0 -31 -24 -66q-30 -44 -95 -60q-31 -8 -69 -9q-107 0 -212 89q-74 65 -101 142q-26 71 -27 140v42q0 111 67 196q100 102 183.5 124t262.5 35q168 0 168 148
q0 153 -107 238q-42 32 -91 32q-88 0 -190 -108q-93 -93 -160 -93h-4q-38 0 -71 37q-18 20 -18 50q0 9 1 18q5 58 49 111q117 145 257 203q49 20 106 20q97 0 217 -59q187 -91 205 -341q5 -176 58 -245q38 -50 97 -50q12 0 23 3q9 1 21 7q0 -19 -32 -69q-49 -77 -240 -96
q-59 -6 -129 -6q-81 7 -151 7q-97 0 -169 -14q-153 -29 -153 -185zM789 -141q95 0 95 -88q0 -89 -95 -89q-96 0 -96 89q0 88 96 88zM1085 -140q95 0 95 -88q0 -89 -95 -89q-96 0 -96 89q0 88 96 88zM940 -388q95 0 95 -88q0 -89 -95 -89q-96 0 -96 89q0 88 96 88z" />
    <glyph glyph-name="uFB7B" unicode="&#x686;" horiz-adv-x="1145" arabic-form="final" 
d="M1026 351q14 -61 45 -96q36 -26 73 -26h15v-189h-21q-137 3 -209 154q-105 -136 -241 -150q-19 -2 -36 -3q-6 1 -15 1q-20 1 -40 1q-59 0 -110 -10q-152 -29 -152 -185q0 -21 5 -46l3 -7q32 -112 164 -112q20 0 43 5q18 4 33 4q41 0 64 -37q10 -15 13 -29q3 -10 3 -19
q0 -31 -24 -66q-30 -44 -95 -60q-31 -8 -69 -9q-107 0 -212 89q-74 65 -101 142q-26 71 -27 140v42q0 111 67 196q100 102 183.5 124t262.5 35q168 0 168 148q0 153 -107 238q-42 32 -91 32q-88 0 -190 -108q-93 -93 -160 -93h-4q-38 0 -71 37q-18 20 -18 50q0 9 1 18
q5 58 49 111q117 145 257 203q49 20 106 20q97 0 217 -59q187 -91 205 -340v-6q3 -84 16 -140zM759 -141q95 0 95 -88q0 -89 -95 -89q-96 0 -96 89q0 88 96 88zM1055 -140q95 0 95 -88q0 -89 -95 -89q-96 0 -96 89q0 88 96 88zM910 -388q95 0 95 -88q0 -89 -95 -89
q-96 0 -96 89q0 88 96 88z" />
    <glyph glyph-name="uFB7C" unicode="&#x686;" horiz-adv-x="1178" arabic-form="initial" 
d="M-21 229h482q194 14 194 159q0 153 -107 238q-42 32 -91 32q-88 0 -190 -108q-93 -93 -160 -93h-4q-38 0 -71 37q-18 20 -18 50q0 9 1 18q5 58 49 111q117 145 257 203q49 20 106 20q97 0 217 -59q187 -91 205 -341q5 -176 58 -245q38 -50 97 -50q12 0 23 3q9 1 21 7
q0 -19 -32 -69q-49 -77 -240 -96q-59 -6 -131 -6l-143 -1h-523v190zM306 -141q95 0 95 -88q0 -89 -95 -89q-96 0 -96 89q0 88 96 88zM602 -140q95 0 95 -88q0 -89 -95 -89q-96 0 -96 89q0 88 96 88zM457 -388q95 0 95 -88q0 -89 -95 -89q-96 0 -96 89q0 88 96 88z" />
    <glyph glyph-name="uFB7D" unicode="&#x686;" horiz-adv-x="982" arabic-form="medial" 
d="M429 40h-450v189h482q194 14 194 159q0 153 -107 238q-42 32 -91 32q-88 0 -190 -108q-93 -93 -160 -93h-4q-38 0 -71 37q-18 20 -18 50q0 9 1 18q5 58 49 111q117 145 257 203q49 20 106 20q97 0 217 -59q187 -91 205 -340q0 -14 1 -105q14 -94 53 -137q36 -26 73 -26
h15v-189h-21q-137 3 -209 154q-114 -148 -332 -154zM246 -141q95 0 95 -88q0 -89 -95 -89q-96 0 -96 89q0 88 96 88zM542 -140q95 0 95 -88q0 -89 -95 -89q-96 0 -96 89q0 88 96 88zM397 -388q95 0 95 -88q0 -89 -95 -89q-96 0 -96 89q0 88 96 88z" />
    <glyph glyph-name="u062D" unicode="&#x62d;" horiz-adv-x="1200" arabic-form="isolated" 
d="M325 -152q0 -21 5 -46l3 -7q32 -112 164 -112q20 0 43 5q18 4 33 4q41 0 64 -37q10 -15 13 -29q3 -10 3 -19q0 -31 -24 -66q-30 -44 -95 -60q-31 -8 -69 -9q-107 0 -212 89q-74 65 -101 142q-26 71 -27 140v42q0 111 67 196q100 102 183.5 124t262.5 35q168 0 168 148
q0 153 -107 238q-42 32 -91 32q-88 0 -190 -108q-93 -93 -160 -93h-4q-38 0 -71 37q-18 20 -18 50q0 9 1 18q5 58 49 111q117 145 257 203q49 20 106 20q97 0 217 -59q187 -91 205 -341q5 -176 58 -245q38 -50 97 -50q12 0 23 3q9 1 21 7q0 -19 -32 -69q-49 -77 -240 -96
q-59 -6 -129 -6q-81 7 -151 7q-97 0 -169 -14q-153 -29 -153 -185z" />
    <glyph glyph-name="uFEA2" unicode="&#x62d;" horiz-adv-x="1145" arabic-form="final" 
d="M1026 351q14 -61 45 -96q36 -26 73 -26h15v-189h-21q-137 3 -209 154q-105 -136 -241 -150q-19 -2 -36 -3q-6 1 -15 1q-20 1 -40 1q-59 0 -110 -10q-152 -29 -152 -185q0 -21 5 -46l3 -7q32 -112 164 -112q20 0 43 5q18 4 33 4q41 0 64 -37q10 -15 13 -29q3 -10 3 -19
q0 -31 -24 -66q-30 -44 -95 -60q-31 -8 -69 -9q-107 0 -212 89q-74 65 -101 142q-26 71 -27 140v42q0 111 67 196q100 102 183.5 124t262.5 35q168 0 168 148q0 153 -107 238q-42 32 -91 32q-88 0 -190 -108q-93 -93 -160 -93h-4q-38 0 -71 37q-18 20 -18 50q0 9 1 18
q5 58 49 111q117 145 257 203q49 20 106 20q97 0 217 -59q187 -91 205 -340v-6q3 -84 16 -140z" />
    <glyph glyph-name="uFEA3" unicode="&#x62d;" horiz-adv-x="1102" arabic-form="initial" 
d="M-21 229h482q194 14 194 159q0 153 -107 238q-42 32 -91 32q-88 0 -190 -108q-93 -93 -160 -93h-4q-38 0 -71 37q-18 20 -18 50q0 9 1 18q5 58 49 111q117 145 257 203q49 20 106 20q97 0 217 -59q187 -91 205 -341q5 -176 58 -245q38 -50 97 -50q12 0 23 3q9 1 21 7
q0 -19 -32 -69q-49 -77 -240 -96q-59 -6 -131 -6l-143 -1h-523v190z" />
    <glyph glyph-name="uFEA4" unicode="&#x62d;" horiz-adv-x="982" arabic-form="medial" 
d="M429 40h-450v189h482q194 14 194 159q0 153 -107 238q-42 32 -91 32q-88 0 -190 -108q-93 -93 -160 -93h-4q-38 0 -71 37q-18 20 -18 50q0 9 1 18q5 58 49 111q117 145 257 203q49 20 106 20q97 0 217 -59q187 -91 205 -340q0 -14 1 -105q14 -94 53 -137q36 -26 73 -26
h15v-189h-21q-137 3 -209 154q-114 -148 -332 -154z" />
    <glyph glyph-name="u062E" unicode="&#x62e;" horiz-adv-x="1200" arabic-form="isolated" 
d="M439 1152q0 89 96 89q95 0 95 -89q0 -88 -95 -88q-96 0 -96 88zM325 -152q0 -21 5 -46l3 -7q32 -112 164 -112q20 0 43 5q18 4 33 4q41 0 64 -37q10 -15 13 -29q3 -10 3 -19q0 -31 -24 -66q-30 -44 -95 -60q-31 -8 -69 -9q-107 0 -212 89q-74 65 -101 142q-26 71 -27 140
v42q0 111 67 196q100 102 183.5 124t262.5 35q168 0 168 148q0 153 -107 238q-42 32 -91 32q-88 0 -190 -108q-93 -93 -160 -93h-4q-38 0 -71 37q-18 20 -18 50q0 9 1 18q5 58 49 111q117 145 257 203q49 20 106 20q97 0 217 -59q187 -91 205 -341q5 -176 58 -245
q38 -50 97 -50q12 0 23 3q9 1 21 7q0 -19 -32 -69q-49 -77 -240 -96q-59 -6 -129 -6q-81 7 -151 7q-97 0 -169 -14q-153 -29 -153 -185z" />
    <glyph glyph-name="uFEA6" unicode="&#x62e;" horiz-adv-x="1145" arabic-form="final" 
d="M1026 351q14 -61 45 -96q36 -26 73 -26h15v-189h-21q-137 3 -209 154q-105 -136 -241 -150q-19 -2 -36 -3q-6 1 -15 1q-20 1 -40 1q-59 0 -110 -10q-152 -29 -152 -185q0 -21 5 -46l3 -7q32 -112 164 -112q20 0 43 5q18 4 33 4q41 0 64 -37q10 -15 13 -29q3 -10 3 -19
q0 -31 -24 -66q-30 -44 -95 -60q-31 -8 -69 -9q-107 0 -212 89q-74 65 -101 142q-26 71 -27 140v42q0 111 67 196q100 102 183.5 124t262.5 35q168 0 168 148q0 153 -107 238q-42 32 -91 32q-88 0 -190 -108q-93 -93 -160 -93h-4q-38 0 -71 37q-18 20 -18 50q0 9 1 18
q5 58 49 111q117 145 257 203q49 20 106 20q97 0 217 -59q187 -91 205 -340v-6q3 -84 16 -140zM449 1152q0 89 96 89q95 0 95 -89q0 -88 -95 -88q-96 0 -96 88z" />
    <glyph glyph-name="uFEA7" unicode="&#x62e;" horiz-adv-x="1089" arabic-form="initial" 
d="M222 1152q0 89 96 89q95 0 95 -89q0 -88 -95 -88q-96 0 -96 88zM-21 229h482q194 14 194 159q0 153 -107 238q-42 32 -91 32q-88 0 -190 -108q-93 -93 -160 -93h-4q-38 0 -71 37q-18 20 -18 50q0 9 1 18q5 58 49 111q117 145 257 203q49 20 106 20q97 0 217 -59
q187 -91 205 -341q5 -176 58 -245q38 -50 97 -50q12 0 23 3q9 1 21 7q0 -19 -32 -69q-49 -77 -240 -96q-59 -6 -131 -6l-143 -1h-523v190z" />
    <glyph glyph-name="uFEA8" unicode="&#x62e;" horiz-adv-x="982" arabic-form="medial" 
d="M429 40h-450v189h482q194 14 194 159q0 153 -107 238q-42 32 -91 32q-88 0 -190 -108q-93 -93 -160 -93h-4q-38 0 -71 37q-18 20 -18 50q0 9 1 18q5 58 49 111q117 145 257 203q49 20 106 20q97 0 217 -59q187 -91 205 -340q0 -14 1 -105q14 -94 53 -137q36 -26 73 -26
h15v-189h-21q-137 3 -209 154q-114 -148 -332 -154zM222 1152q0 89 96 89q95 0 95 -89q0 -88 -95 -88q-96 0 -96 88z" />
    <glyph glyph-name="u062F" unicode="&#x62f;" horiz-adv-x="941" arabic-form="isolated" 
d="M854 273q-2 -29 -10 -55q-51 -177 -202 -178h-434q-112 1 -113 86v2q0 101 119 101h258q166 0 166 98q0 34 -26 77l-126 159q-36 53 -98 53q-47 0 -105 -34q-27 -16 -49 -16q-21 0 -42 18q-13 11 -29 35q-10 16 -10 38q0 17 6 39q13 46 65 78q24 14 59 26q46 17 91 17
q62 0 123 -31q33 -16 69 -45q47 -30 100 -95l138 -183q46 -73 55 -145q0 -21 -5 -45z" />
    <glyph glyph-name="uFEAA" unicode="&#x62f;" horiz-adv-x="1061" arabic-form="final" 
d="M1074 229v-189h-13q-109 0 -216 117q-39 -53 -49 -64q-72 -53 -137 -53h-434q-112 1 -113 86v2q0 101 119 101h258q166 0 166 98q0 34 -26 77l-126 159q-36 53 -98 53q-47 0 -105 -34q-27 -16 -49 -16q-21 0 -42 18q-13 11 -29 35q-10 16 -10 38q0 17 6 39q13 46 65 78
q24 14 59 26q46 17 91 17q62 0 123 -31q33 -16 69 -45q47 -30 100 -95l138 -183q91 -136 164 -185t89 -49z" />
    <glyph glyph-name="u0630" unicode="&#x630;" horiz-adv-x="941" arabic-form="isolated" 
d="M854 273q-2 -29 -10 -55q-51 -177 -202 -178h-434q-112 1 -113 86v2q0 101 119 101h258q166 0 166 98q0 34 -26 77l-126 159q-36 53 -98 53q-47 0 -105 -34q-27 -16 -49 -16q-21 0 -42 18q-13 11 -29 35q-10 16 -10 38q0 17 6 39q13 46 65 78q24 14 59 26q46 17 91 17
q62 0 123 -31q33 -16 69 -45q47 -30 100 -95l138 -183q46 -73 55 -145q0 -21 -5 -45zM310 1154q95 0 95 -88q0 -89 -95 -89q-96 0 -96 89q0 88 96 88z" />
    <glyph glyph-name="uFEAC" unicode="&#x630;" horiz-adv-x="1061" arabic-form="final" 
d="M1074 229v-189h-13q-109 0 -216 117q-39 -53 -49 -64q-72 -53 -137 -53h-434q-112 1 -113 86v2q0 101 119 101h258q166 0 166 98q0 34 -26 77l-126 159q-36 53 -98 53q-47 0 -105 -34q-27 -16 -49 -16q-21 0 -42 18q-13 11 -29 35q-10 16 -10 38q0 17 6 39q13 46 65 78
q24 14 59 26q46 17 91 17q62 0 123 -31q33 -16 69 -45q47 -30 100 -95l138 -183q91 -136 164 -185t89 -49zM320 1154q95 0 95 -88q0 -89 -95 -89q-96 0 -96 89q0 88 96 88z" />
    <glyph glyph-name="u0631" unicode="&#x631;" horiz-adv-x="600" arabic-form="isolated" 
d="M326 93v21q2 82 2 277q0 113 91 114h15q79 0 88 -127q1 -42 1 -85q0 -47 -3 -92q-5 -140 -36.5 -256.5t-142.5 -219.5t-230 -136q-38 -8 -70 -8q-67 0 -106 36q-41 38 -41 78q0 14 5 28q19 43 94 59q184 30 243 100q81 72 90 211z" />
    <glyph glyph-name="uFEAE" unicode="&#x631;" horiz-adv-x="600" arabic-form="final" 
d="M520 229h93v-189h-15q-49 0 -82 -22q-46 -34 -52 -128q-4 -66 -15 -129q-25 -109 -125 -192q-137 -96 -260 -96h-36q-120 0 -148 36q-11 0 -28 54v26q0 56 79 84q15 0 28 3q33 -3 69 -3h24q102 0 181 97q39 64 39 145q0 66 9 112l9 46q69 156 230 156z" />
    <glyph glyph-name="u0632" unicode="&#x632;" horiz-adv-x="600" arabic-form="isolated" 
d="M406 874q95 0 95 -88q0 -89 -95 -89q-96 0 -96 89q0 88 96 88zM326 93v21q2 82 2 277q0 113 91 114h15q79 0 88 -127q1 -42 1 -85q0 -47 -3 -92q-5 -140 -36.5 -256.5t-142.5 -219.5t-230 -136q-38 -8 -70 -8q-67 0 -106 36q-41 38 -41 78q0 14 5 28q19 43 94 59
q184 30 243 100q81 72 90 211z" />
    <glyph glyph-name="uFEB0" unicode="&#x632;" horiz-adv-x="600" arabic-form="final" 
d="M520 229h93v-189h-15q-49 0 -82 -22q-46 -34 -52 -128q-4 -66 -15 -129q-25 -109 -125 -192q-137 -96 -260 -96h-36q-120 0 -148 36q-11 0 -28 54v26q0 56 79 84q15 0 28 3q33 -3 69 -3h24q102 0 181 97q39 64 39 145q0 66 9 112l9 46q69 156 230 156zM258 709
q95 0 95 -88q0 -89 -95 -89q-96 0 -96 89q0 88 96 88z" />
    <glyph glyph-name="u0698" unicode="&#x698;" horiz-adv-x="600" arabic-form="isolated" 
d="M332 93v21q2 82 2 277q0 113 91 114h15q79 0 88 -127q1 -42 1 -85q0 -47 -3 -92q-5 -140 -36.5 -256.5t-142.5 -219.5t-230 -136q-38 -8 -70 -8q-67 0 -106 36q-41 38 -41 78q0 14 5 28q19 43 94 59q184 30 243 100q81 72 90 211zM106 768q0 89 96 89q95 0 95 -89
q0 -88 -95 -88q-96 0 -96 88zM402 767q0 89 96 89q95 0 95 -89q0 -88 -95 -88q-96 0 -96 88zM257 1015q0 89 96 89q95 0 95 -89q0 -88 -95 -88q-96 0 -96 88z" />
    <glyph glyph-name="uFB8B" unicode="&#x698;" horiz-adv-x="600" arabic-form="final" 
d="M520 229h93v-189h-15q-49 0 -82 -22q-46 -34 -52 -128q-4 -66 -15 -129q-25 -109 -125 -192q-137 -96 -260 -96h-36q-120 0 -148 36q-11 0 -28 54v26q0 56 79 84q15 0 28 3q33 -3 69 -3h24q102 0 181 97q39 64 39 145q0 66 9 112l9 46q69 156 230 156zM116 568
q0 89 96 89q95 0 95 -89q0 -88 -95 -88q-96 0 -96 88zM412 567q0 89 96 89q95 0 95 -89q0 -88 -95 -88q-96 0 -96 88zM267 815q0 89 96 89q95 0 95 -89q0 -88 -95 -88q-96 0 -96 88z" />
    <glyph glyph-name="u0633" unicode="&#x633;" horiz-adv-x="2200" arabic-form="isolated" 
d="M323 101v-118q1 -244 304 -244q300 0 300 314v528q0 179 105 179q111 -1 111 -137v-243q9 -171 150 -171q119 0 119 156v258q0 132 115 137q85 0 90 -144v-230q9 -180 141 -180h2q131 0 131 175v228q0 151 98 151q80 0 80 -150l1 -190q0 -176 -58 -275
q-65 -107 -185 -115h-45q-165 9 -262 155q-59 -150 -192 -175q-29 -8 -59 -8q-63 0 -127 38q-21 -278 -149 -378q-147 -112 -356 -112q-223 0 -367 96t-144 337q-1 33 -1 63q0 27 1 53q7 223 72 294q82 114 186 139q38 8 70 8q67 0 106 -36q41 -38 41 -78q0 -14 -6 -30
q-17 -56 -86 -56q-167 0 -186 -239z" />
    <glyph glyph-name="uFEB2" unicode="&#x633;" horiz-adv-x="2243" arabic-form="final" 
d="M345 99l1 -116q1 -244 304 -244q300 0 300 314v528q0 179 105 179q111 -1 111 -137v-243q9 -171 150 -171q119 0 119 156v258q0 132 115 137q85 0 90 -144v-230q9 -180 141 -180h2q131 0 131 175v228q0 151 98 151q80 0 80 -150l-1 -127q1 -160 46 -201q44 -53 100 -53
h35v-189h-34q-135 6 -174 132q-94 -134 -214 -142h-45q-165 9 -262 155q-59 -150 -192 -175q-30 -5 -57 -5q-71 0 -129 35q-21 -278 -149 -378q-147 -112 -356 -112q-223 0 -367 96t-144 337q-4 55 -4 103q0 148 34 230q17 49 42 77q82 114 186 139q38 8 70 8q67 0 106 -36
q41 -38 41 -78q0 -14 -6 -30q-17 -56 -86 -56q-167 0 -187 -236v-5z" />
    <glyph glyph-name="uFEB3" unicode="&#x633;" horiz-adv-x="1400" arabic-form="initial" 
d="M189 581q0 179 105 179q111 -1 111 -137v-243q9 -171 150 -171q119 0 119 156v258q0 132 115 137q85 0 90 -144v-230q9 -180 141 -180h2q131 0 131 175v228q0 151 98 151q80 0 81 -149v-191q0 -176 -58 -275q-65 -107 -185 -115h-45q-165 9 -262 155q-59 -150 -193 -175
q-16 -1 -35 -1q-179 0 -291 125q-118 -94 -245 -94h-38v189h65q144 0 144 196v156z" />
    <glyph glyph-name="uFEB4" unicode="&#x633;" horiz-adv-x="1508" arabic-form="medial" 
d="M1289 199q-81 -161 -200 -169h-45q-165 9 -262 155q-59 -150 -193 -175q-16 -1 -35 -1q-179 0 -291 125q-118 -94 -245 -94h-38v189h65q144 0 144 196v156q0 179 105 179q111 -1 111 -137v-243q9 -171 150 -171q119 0 119 156v258q0 132 115 137q85 0 90 -144v-230
q9 -180 141 -180h2q131 0 131 175v228q0 151 98 151q79 0 79 -146v-131q5 -254 179 -254h31v-189h-44q-164 8 -207 159z" />
    <glyph glyph-name="u0634" unicode="&#x634;" horiz-adv-x="2200" arabic-form="isolated" 
d="M1262 1072q0 89 96 89q95 0 95 -89q0 -88 -95 -88q-96 0 -96 88zM1413 1319q0 89 96 89q95 0 95 -89q0 -88 -95 -88q-96 0 -96 88zM1558 1071q0 89 96 89q95 0 95 -89q0 -88 -95 -88q-96 0 -96 88zM323 101v-118q1 -244 304 -244q300 0 300 314v528q0 179 105 179
q111 -1 111 -137v-243q9 -171 150 -171q119 0 119 156v258q0 132 115 137q85 0 90 -144v-230q9 -180 141 -180h2q131 0 131 175v228q0 151 98 151q80 0 80 -150l1 -190q0 -176 -58 -275q-65 -107 -185 -115h-45q-165 9 -262 155q-59 -150 -192 -175q-29 -8 -59 -8
q-63 0 -127 38q-21 -278 -149 -378q-147 -112 -356 -112q-223 0 -367 96t-144 337q-1 33 -1 63q0 27 1 53q7 223 72 294q82 114 186 139q38 8 70 8q67 0 106 -36q41 -38 41 -78q0 -14 -6 -30q-17 -56 -86 -56q-167 0 -186 -239z" />
    <glyph glyph-name="uFEB6" unicode="&#x634;" horiz-adv-x="2243" arabic-form="final" 
d="M1285 1072q0 89 96 89q95 0 95 -89q0 -88 -95 -88q-96 0 -96 88zM1581 1071q0 89 96 89q95 0 95 -89q0 -88 -95 -88q-96 0 -96 88zM1436 1319q0 89 96 89q95 0 95 -89q0 -88 -95 -88q-96 0 -96 88zM345 99l1 -116q1 -244 304 -244q300 0 300 314v528q0 179 105 179
q111 -1 111 -137v-243q9 -171 150 -171q119 0 119 156v258q0 132 115 137q85 0 90 -144v-230q9 -180 141 -180h2q131 0 131 175v228q0 151 98 151q80 0 80 -150l-1 -127q1 -160 46 -201q44 -53 100 -53h35v-189h-34q-135 6 -174 132q-94 -134 -214 -142h-45q-165 9 -262 155
q-59 -150 -192 -175q-30 -5 -57 -5q-71 0 -129 35q-21 -278 -149 -378q-147 -112 -356 -112q-223 0 -367 96t-144 337q-4 55 -4 103q0 148 34 230q17 49 42 77q82 114 186 139q38 8 70 8q67 0 106 -36q41 -38 41 -78q0 -14 -6 -30q-17 -56 -86 -56q-167 0 -187 -236v-5z" />
    <glyph glyph-name="uFEB7" unicode="&#x634;" horiz-adv-x="1400" arabic-form="initial" 
d="M524 1072q0 89 96 89q95 0 95 -89q0 -88 -95 -88q-96 0 -96 88zM675 1319q0 89 96 89q95 0 95 -89q0 -88 -95 -88q-96 0 -96 88zM820 1071q0 89 96 89q95 0 95 -89q0 -88 -95 -88q-96 0 -96 88zM189 581q0 179 105 179q111 -1 111 -137v-243q9 -171 150 -171
q119 0 119 156v258q0 132 115 137q85 0 90 -144v-230q9 -180 141 -180h2q131 0 131 175v228q0 151 98 151q80 0 81 -149v-191q0 -176 -58 -275q-65 -107 -185 -115h-45q-165 9 -262 155q-59 -150 -193 -175q-16 -1 -35 -1q-179 0 -291 125q-118 -94 -245 -94h-38v189h65
q144 0 144 196v156z" />
    <glyph glyph-name="uFEB8" unicode="&#x634;" horiz-adv-x="1508" arabic-form="medial" 
d="M1289 199q-81 -161 -200 -169h-45q-165 9 -262 155q-59 -150 -193 -175q-16 -1 -35 -1q-179 0 -291 125q-118 -94 -245 -94h-38v189h65q144 0 144 196v156q0 179 105 179q111 -1 111 -137v-243q9 -171 150 -171q119 0 119 156v258q0 132 115 137q85 0 90 -144v-230
q9 -180 141 -180h2q131 0 131 175v228q0 151 98 151q79 0 79 -146v-131q5 -254 179 -254h31v-189h-44q-164 8 -207 159zM675 1319q0 89 96 89q95 0 95 -89q0 -88 -95 -88q-96 0 -96 88zM820 1071q0 89 96 89q95 0 95 -89q0 -88 -95 -88q-96 0 -96 88zM524 1072q0 89 96 89
q95 0 95 -89q0 -88 -95 -88q-96 0 -96 88z" />
    <glyph glyph-name="u0635" unicode="&#x635;" horiz-adv-x="2262" arabic-form="isolated" 
d="M1127 40q-22 -289 -144 -378q-157 -112 -357 -112q-213 0 -357 96t-144 336l1 117q7 223 72 294q82 114 186 139q38 8 70 8q67 0 106 -36q41 -38 41 -78q0 -14 -6 -30q-17 -56 -86 -56q-167 0 -183 -201h-4v-156q1 -244 304 -244q299 0 321 310v467q1 164 110 164
q92 0 92 -165v-300q158 377 324 447q131 78 342 91q377 0 389 -274v-172q-19 -139 -116.5 -203t-339.5 -64h-621zM1331 229h479q216 0 216 160q0 176 -162 176h-8q-425 -21 -525 -336z" />
    <glyph glyph-name="uFEBA" unicode="&#x635;" horiz-adv-x="2342" arabic-form="final" 
d="M2214 383q6 -74 141 -74l1 -269q-121 6 -203 108q-39 -33 -53 -41q-100 -67 -342 -67h-621q-22 -289 -144 -378q-157 -112 -357 -112q-213 0 -357 96t-144 336l1 117q7 223 72 294q82 114 186 139q38 8 70 8q67 0 106 -36q41 -38 41 -78q0 -14 -6 -30q-17 -56 -86 -56
q-167 0 -183 -201h-4v-156q1 -244 304 -244q299 0 321 310v467q1 164 110 164q92 0 92 -165v-300q158 377 324 447q131 78 342 91q377 0 389 -274v-96zM1341 229h479q216 0 216 160q0 176 -162 176h-8q-425 -21 -525 -336z" />
    <glyph glyph-name="uFEBB" unicode="&#x635;" horiz-adv-x="1477" arabic-form="initial" 
d="M476 229h479q216 0 216 160q0 176 -162 176h-8q-425 -21 -525 -336zM90 516q1 164 110 164q92 0 92 -165v-280q158 357 324 427q131 78 342 91q377 0 389 -274v-172q-19 -139 -116.5 -203t-339.5 -64h-520q-131 0 -175 95q-38 -94 -139 -95h-79v189h112v287z" />
    <glyph glyph-name="uFEBC" unicode="&#x635;" horiz-adv-x="1528" arabic-form="medial" 
d="M480 229h479q216 0 216 160q0 176 -162 176h-8q-425 -21 -525 -336zM406 40q-161 0 -206 99q-47 -98 -138 -99h-84v189h117v287q1 164 110 164q92 0 92 -165l2 -267q156 344 322 414q131 78 342 91q377 0 389 -275l1 -18q1 -18 26.5 -117t135.5 -114h21v-189h-14
q-101 7 -206 141q-51 -57 -78 -75q-100 -66 -342 -66h-490z" />
    <glyph glyph-name="u0636" unicode="&#x636;" horiz-adv-x="2262" arabic-form="isolated" 
d="M1127 40q-22 -289 -144 -378q-157 -112 -357 -112q-213 0 -357 96t-144 336l1 117q7 223 72 294q82 114 186 139q38 8 70 8q67 0 106 -36q41 -38 41 -78q0 -14 -6 -30q-17 -56 -86 -56q-167 0 -183 -201h-4v-156q1 -244 304 -244q299 0 321 310v467q1 164 110 164
q92 0 92 -165v-300q158 377 324 447q131 78 342 91q377 0 389 -274v-172q-19 -139 -116.5 -203t-339.5 -64h-621zM1347 1030q95 0 95 -88q0 -89 -95 -89q-96 0 -96 89q0 88 96 88zM1331 229h479q216 0 216 160q0 176 -162 176h-8q-425 -21 -525 -336z" />
    <glyph glyph-name="uFEBE" unicode="&#x636;" horiz-adv-x="2342" arabic-form="final" 
d="M2214 383q6 -74 141 -74l1 -269q-121 6 -203 108q-39 -33 -53 -41q-100 -67 -342 -67h-621q-22 -289 -144 -378q-157 -112 -357 -112q-213 0 -357 96t-144 336l1 117q7 223 72 294q82 114 186 139q38 8 70 8q67 0 106 -36q41 -38 41 -78q0 -14 -6 -30q-17 -56 -86 -56
q-167 0 -183 -201h-4v-156q1 -244 304 -244q299 0 321 310v467q1 164 110 164q92 0 92 -165v-300q158 377 324 447q131 78 342 91q377 0 389 -274v-96zM1357 1030q95 0 95 -88q0 -89 -95 -89q-96 0 -96 89q0 88 96 88zM1341 229h479q216 0 216 160q0 176 -162 176h-8
q-425 -21 -525 -336z" />
    <glyph glyph-name="uFEBF" unicode="&#x636;" horiz-adv-x="1477" arabic-form="initial" 
d="M476 229h479q216 0 216 160q0 176 -162 176h-8q-425 -21 -525 -336zM90 516q1 164 110 164q92 0 92 -165v-280q158 357 324 427q131 78 342 91q377 0 389 -274v-172q-19 -139 -116.5 -203t-339.5 -64h-520q-131 0 -175 95q-38 -94 -139 -95h-79v189h112v287zM542 1030
q95 0 95 -88q0 -89 -95 -89q-96 0 -96 89q0 88 96 88z" />
    <glyph glyph-name="uFEC0" unicode="&#x636;" horiz-adv-x="1528" arabic-form="medial" 
d="M546 1030q95 0 95 -88q0 -89 -95 -89q-96 0 -96 89q0 88 96 88zM480 229h479q216 0 216 160q0 176 -162 176h-8q-425 -21 -525 -336zM406 40q-161 0 -206 99q-47 -98 -138 -99h-84v189h117v287q1 164 110 164q92 0 92 -165l2 -267q156 344 322 414q131 78 342 91
q377 0 389 -275l1 -18q1 -18 26.5 -117t135.5 -114h21v-189h-14q-101 7 -206 141q-51 -57 -78 -75q-100 -66 -342 -66h-490z" />
    <glyph glyph-name="u0637" unicode="&#x637;" horiz-adv-x="1400" arabic-form="isolated" 
d="M476 229h479q216 0 216 160q0 176 -162 176h-8q-425 -21 -525 -336zM236 40q-151 0 -151 94v18q0 77 155 77h65q69 152 115 236v697q3 164 97 164h2q95 -1 96 -173v-508q174 98 343 108q377 0 389 -274v-172q-19 -139 -116.5 -203t-339.5 -64h-655z" />
    <glyph glyph-name="uFEC2" unicode="&#x637;" horiz-adv-x="1600" arabic-form="final" 
d="M521 229h479q216 0 216 160q0 176 -162 176h-8q-425 -21 -525 -336zM1387 466l1 -8q1 -16 26.5 -115t165.5 -114h31v-189h-54q-101 7 -206 141q-52 -58 -78 -74q-100 -67 -342 -67h-655q-151 0 -151 94v18q0 77 155 77h65q49 132 115 236v697q3 164 97 164h2
q95 -1 96 -173v-488q174 78 343 88q377 0 389 -274v-13z" />
    <glyph glyph-name="uFEC3" unicode="&#x637;" horiz-adv-x="1100" arabic-form="initial" 
d="M173 229h479q216 0 216 160q0 176 -162 176h-8q-425 -21 -525 -336zM312 665q174 78 343 88q377 0 389 -274v-172q-19 -139 -116.5 -203t-339.5 -64h-608v189h22q49 122 95 206v707q3 184 107 184h2q105 -1 106 -173v-488z" />
    <glyph glyph-name="uFEC4" unicode="&#x637;" horiz-adv-x="1232" arabic-form="medial" 
d="M173 229h479q216 0 216 160q0 176 -162 176h-8q-425 -21 -525 -336zM1071 354q27 -110 147 -125h21v-189h-24q-101 7 -206 141q-51 -57 -68 -68h-1q-110 -73 -352 -73h-608v189h22q49 122 95 206v707q3 184 107 184h2q105 -1 106 -173v-488q174 78 343 88q377 0 389 -276
q6 -60 27 -123z" />
    <glyph glyph-name="u0638" unicode="&#x638;" horiz-adv-x="1400" arabic-form="isolated" 
d="M476 229h479q216 0 216 160q0 176 -162 176h-8q-425 -21 -525 -336zM236 40q-151 0 -151 94v18q0 77 155 77h65q69 152 115 236v697q3 164 97 164h2q95 -1 96 -173v-508q174 98 343 108q377 0 389 -274v-172q-19 -139 -116.5 -203t-339.5 -64h-655zM857 1077q95 0 95 -88
q0 -89 -95 -89q-96 0 -96 89q0 88 96 88z" />
    <glyph glyph-name="uFEC6" unicode="&#x638;" horiz-adv-x="1600" arabic-form="final" 
d="M521 229h479q216 0 216 160q0 176 -162 176h-8q-425 -21 -525 -336zM1387 466l1 -8q1 -16 26.5 -115t165.5 -114h31v-189h-54q-101 7 -206 141q-52 -58 -78 -74q-100 -67 -342 -67h-655q-151 0 -151 94v18q0 77 155 77h65q49 132 115 236v697q3 164 97 164h2
q95 -1 96 -173v-488q174 78 343 88q377 0 389 -274v-13zM897 1077q95 0 95 -88q0 -89 -95 -89q-96 0 -96 89q0 88 96 88z" />
    <glyph glyph-name="uFEC7" unicode="&#x638;" horiz-adv-x="1100" arabic-form="initial" 
d="M173 229h479q216 0 216 160q0 176 -162 176h-8q-425 -21 -525 -336zM312 665q174 78 343 88q377 0 389 -274v-172q-19 -139 -116.5 -203t-339.5 -64h-608v189h22q49 122 95 206v707q3 184 107 184h2q105 -1 106 -173v-488zM554 1077q95 0 95 -88q0 -89 -95 -89
q-96 0 -96 89q0 88 96 88z" />
    <glyph glyph-name="uFEC8" unicode="&#x638;" horiz-adv-x="1232" arabic-form="medial" 
d="M173 229h479q216 0 216 160q0 176 -162 176h-8q-425 -21 -525 -336zM1071 354q27 -110 147 -125h21v-189h-24q-101 7 -206 141q-51 -57 -68 -68h-1q-110 -73 -352 -73h-608v189h22q49 122 95 206v707q3 184 107 184h2q105 -1 106 -173v-488q174 78 343 88q377 0 389 -276
q6 -60 27 -123zM554 1077q95 0 95 -88q0 -89 -95 -89q-96 0 -96 89q0 88 96 88z" />
    <glyph glyph-name="u0639" unicode="&#x639;" horiz-adv-x="1200" arabic-form="isolated" 
d="M410 198q-85 169 -85 222q-3 18 -3 35q0 90 82 213q93 138 270 159q29 4 58 4q144 0 262 -90q57 -38 90 -80q28 -43 28 -76q0 -35 -38 -64q-34 -25 -60 -25q-34 0 -82 38q-85 78 -198 79q-185 0 -200 -194q0 -111 118 -163q131 -27 327 -27q20 1 37 1q128 0 128 -77
q0 -107 -176 -113h-411q-43 0 -79 -7q-153 -29 -153 -185q0 -21 5 -46l3 -7q32 -112 164 -112q20 0 43 5q18 4 33 4q41 0 64 -37q10 -15 13 -29q3 -10 3 -19q0 -31 -24 -66q-30 -44 -95 -60q-31 -8 -69 -9q-107 0 -212 89q-74 65 -101 142q-26 71 -27 140v42q0 111 67 196
q42 43 83 72q66 45 135 45z" />
    <glyph glyph-name="uFECA" unicode="&#x639;" horiz-adv-x="1108" arabic-form="final" 
d="M966 229h165v-189h-223q-163 0 -231 197q-63 -174 -164 -192l-17 -7q-141 -36 -141 -190q0 -21 5 -46l3 -7q32 -112 164 -112q20 0 43 5q18 4 33 4q41 0 64 -37q10 -15 13 -29q3 -10 3 -19q0 -31 -24 -66q-30 -44 -95 -60q-31 -8 -69 -9q-107 0 -212 89q-74 65 -101 142
q-26 71 -27 140v42q0 111 67 196q42 43 83 72q20 17 43 29t54.5 22.5t63.5 30.5q26 19 26 46q0 11 -4 23l-69 91l-62 90q-53 67 -53 128q0 80 91 151q21 16 49 33q96 56 210 57h48q118 -4 217 -63q22 -14 44 -30l58 -46q46 -51 46 -103q0 -40 -27 -81l-100 -132l-66 -88
q-12 -24 -12 -40q0 -25 29 -31q48 -11 75 -11zM831 576q-68 88 -160 89h-6q-88 0 -148 -96l155 -206z" />
    <glyph glyph-name="uFECB" unicode="&#x639;" horiz-adv-x="925" arabic-form="initial" 
d="M481 229h189q20 1 37 1q128 0 128 -77q0 -107 -176 -113h-679v189h131q-55 137 -55 191q-3 18 -3 35q0 90 82 213q93 138 270 159q29 4 58 4q144 0 262 -90q57 -38 90 -80q28 -43 28 -76q0 -35 -38 -64q-34 -25 -60 -25q-34 0 -82 38q-85 78 -198 79q-185 0 -200 -194
q0 -154 216 -190z" />
    <glyph glyph-name="uFECC" unicode="&#x639;" horiz-adv-x="900" arabic-form="medial" 
d="M737 229h185v-189h-203q-183 0 -271 197q-71 -197 -256 -197h-212v189h195q59 0 110 47l-91 121q-106 119 -106 215q0 85 83 152q21 16 49 33q96 56 210 57h48q118 -4 217 -63q22 -14 44 -30l58 -46q46 -51 46 -103q0 -40 -27 -81l-100 -132l-84 -111q21 -58 105 -59z
M601 576q-68 88 -160 89h-6q-88 0 -148 -96l155 -206z" />
    <glyph glyph-name="u063A" unicode="&#x63a;" horiz-adv-x="1200" arabic-form="isolated" 
d="M410 198q-85 169 -85 222q-3 18 -3 35q0 90 82 213q93 138 270 159q29 4 58 4q144 0 262 -90q57 -38 90 -80q28 -43 28 -76q0 -35 -38 -64q-34 -25 -60 -25q-34 0 -82 38q-85 78 -198 79q-185 0 -200 -194q0 -111 118 -163q131 -27 327 -27q20 1 37 1q128 0 128 -77
q0 -107 -176 -113h-411q-43 0 -79 -7q-153 -29 -153 -185q0 -21 5 -46l3 -7q32 -112 164 -112q20 0 43 5q18 4 33 4q41 0 64 -37q10 -15 13 -29q3 -10 3 -19q0 -31 -24 -66q-30 -44 -95 -60q-31 -8 -69 -9q-107 0 -212 89q-74 65 -101 142q-26 71 -27 140v42q0 111 67 196
q42 43 83 72q66 45 135 45zM741 1162q95 0 95 -88q0 -89 -95 -89q-96 0 -96 89q0 88 96 88z" />
    <glyph glyph-name="uFECE" unicode="&#x63a;" horiz-adv-x="1108" arabic-form="final" 
d="M657 1170q95 0 95 -88q0 -89 -95 -89q-96 0 -96 89q0 88 96 88zM966 229h165v-189h-223q-163 0 -231 197q-63 -174 -164 -192l-17 -7q-141 -36 -141 -190q0 -21 5 -46l3 -7q32 -112 164 -112q20 0 43 5q18 4 33 4q41 0 64 -37q10 -15 13 -29q3 -10 3 -19q0 -31 -24 -66
q-30 -44 -95 -60q-31 -8 -69 -9q-107 0 -212 89q-74 65 -101 142q-26 71 -27 140v42q0 111 67 196q42 43 83 72q20 17 43 29t54.5 22.5t63.5 30.5q26 19 26 46q0 11 -4 23l-69 91l-62 90q-53 67 -53 128q0 80 91 151q21 16 49 33q96 56 210 57h48q118 -4 217 -63
q22 -14 44 -30l58 -46q46 -51 46 -103q0 -40 -27 -81l-100 -132l-66 -88q-12 -24 -12 -40q0 -25 29 -31q48 -11 75 -11zM831 576q-68 88 -160 89h-6q-88 0 -148 -96l155 -206z" />
    <glyph glyph-name="uFECF" unicode="&#x63a;" horiz-adv-x="925" arabic-form="initial" 
d="M481 229h189q20 1 37 1q128 0 128 -77q0 -107 -176 -113h-679v189h131q-55 137 -55 191q-3 18 -3 35q0 90 82 213q93 138 270 159q29 4 58 4q144 0 262 -90q57 -38 90 -80q28 -43 28 -76q0 -35 -38 -64q-34 -25 -60 -25q-34 0 -82 38q-85 78 -198 79q-185 0 -200 -194
q0 -154 216 -190zM432 1170q95 0 95 -88q0 -89 -95 -89q-96 0 -96 89q0 88 96 88z" />
    <glyph glyph-name="uFED0" unicode="&#x63a;" horiz-adv-x="900" arabic-form="medial" 
d="M433 1170q95 0 95 -88q0 -89 -95 -89q-96 0 -96 89q0 88 96 88zM737 229h185v-189h-203q-183 0 -271 197q-71 -197 -256 -197h-212v189h195q59 0 110 47l-91 121q-106 119 -106 215q0 85 83 152q21 16 49 33q96 56 210 57h48q118 -4 217 -63q22 -14 44 -30l58 -46
q46 -51 46 -103q0 -40 -27 -81l-100 -132l-84 -111q21 -58 105 -59zM601 576q-68 88 -160 89h-6q-88 0 -148 -96l155 -206z" />
    <glyph glyph-name="u0641" unicode="&#x641;" horiz-adv-x="1672" arabic-form="isolated" 
d="M1132 1205q0 89 96 89q95 0 95 -89q0 -88 -95 -88q-96 0 -96 88zM717 40q-293 0 -437.5 96.5t-153.5 356.5l-1 133q1 134 100 134t99 -127v-97q0 -307 393 -307h479q222 18 226 199q2 34 2 68q0 81 -14 154q-25 133 -179 133h-2q-115 -1 -131 -97q0 -108 112 -108h6
q90 0 91 -90v-1q0 -89 -76 -110q-26 -4 -52 -4q-112 0 -187 77q-4 9 -11 12q-56 63 -66 195v25q10 265 245 294q28 6 79 6q177 0 265 -80q87 -77 103 -266q4 -41 4 -87q2 -28 2 -54q-4 -246 -114.5 -350.5t-330.5 -104.5h-451z" />
    <glyph glyph-name="uFED2" unicode="&#x641;" horiz-adv-x="1770" arabic-form="final" 
d="M1116 1205q0 89 96 89q95 0 95 -89q0 -88 -95 -88q-96 0 -96 88zM697 40q-293 0 -437.5 96.5t-153.5 356.5l-1 133q1 134 100 134t99 -127v-97q0 -307 393 -307h483q222 18 226 199q2 34 2 68q0 81 -14 154q-25 133 -179 133h-2q-115 -1 -131 -97q0 -108 112 -108h6
q90 0 91 -90v-1q0 -89 -76 -110q-26 -4 -52 -4q-112 0 -187 77q-4 9 -11 12q-56 63 -66 195v25q10 265 245 294q28 6 79 6q177 0 265 -80q87 -77 103 -266q4 -41 4 -87q1 -36 1 -64q0 -58 -4 -98q42 -127 171 -158h18v-189h-30q-111 0 -248 121q-137 -121 -351 -121h-455z
" />
    <glyph glyph-name="uFED3" unicode="&#x641;" horiz-adv-x="800" arabic-form="initial" 
d="M266 1205q0 89 96 89q95 0 95 -89q0 -88 -95 -88q-96 0 -96 88zM49 682q10 265 245 294q28 6 79 6q177 0 265 -80q87 -77 103 -266q4 -41 4 -87q2 -28 2 -54q-4 -246 -114.5 -350.5t-330.5 -104.5h-332v189h360q222 18 226 199q2 34 2 68q0 81 -14 154q-25 133 -179 133
h-2q-115 -1 -131 -97q0 -108 112 -108h6q90 0 91 -90v-1q0 -89 -76 -110q-26 -4 -52 -4q-112 0 -187 77q-4 9 -11 12q-56 63 -66 195v25z" />
    <glyph glyph-name="uFED4" unicode="&#x641;" horiz-adv-x="939" arabic-form="medial" 
d="M286 1205q0 89 96 89q95 0 95 -89q0 -88 -95 -88q-96 0 -96 88zM765 549q1 -36 1 -64q0 -58 -4 -98q42 -127 161 -158h18v-189h-30q-101 0 -238 121q-137 -121 -351 -121h-342v189h370q222 18 226 199q2 34 2 68q0 81 -14 154q-25 133 -179 133h-2q-115 -1 -131 -97
q0 -108 112 -108h6q90 0 91 -90v-1q0 -89 -76 -110q-26 -4 -52 -4q-112 0 -187 77q-4 9 -11 12q-56 63 -66 195v25q10 265 245 294q28 6 79 6q177 0 265 -80q87 -77 103 -266q4 -41 4 -87z" />
    <glyph glyph-name="u0642" unicode="&#x642;" horiz-adv-x="1300" arabic-form="isolated" 
d="M629 944q0 89 96 89q95 0 95 -89q0 -88 -95 -88q-96 0 -96 88zM1063 164q2 34 2 68q0 81 -14 154q-25 133 -179 133h-2q-115 -1 -131 -97q0 -108 112 -108h6q90 0 90 -95q0 -1 1 -1v2q0 -86 -76 -107q-26 -4 -52 -4q-112 0 -187 77q-4 9 -11 12q-56 63 -66 195v25
q10 265 245 294q28 6 79 6q177 0 265 -80q87 -77 103 -265q6 -78 6 -151q0 -41 -2 -80q-5 -110 -42.5 -245.5t-163 -224.5t-359.5 -92q-241 0 -401 125t-160 307l-1 199v5q0 155 102 155q95 0 96 -157v-206q57 -239 354 -239q314 0 370 235q14 52 16 160zM925 943
q0 89 96 89q95 0 95 -89q0 -88 -95 -88q-96 0 -96 88z" />
    <glyph glyph-name="uFED6" unicode="&#x642;" horiz-adv-x="1418" arabic-form="final" 
d="M1258 375q23 -146 175 -146v-189h-15q-70 0 -151 77q-23 -132 -49 -224q-36 -132 -161.5 -221t-359.5 -92q-241 0 -401 125t-160 307l-1 199v5q0 155 102 155q95 0 96 -157v-206q57 -239 354 -239q314 0 370 235q14 52 16 160q2 34 2 68q0 81 -14 154q-25 133 -179 133
h-2q-115 -1 -131 -97q0 -108 112 -108h6q90 0 91 -90v-1q0 -89 -76 -110q-26 -4 -52 -4q-112 0 -187 77q-4 9 -11 12q-56 63 -66 195v25q10 265 245 294q28 6 79 6q177 0 265 -80q87 -77 103 -263zM639 944q0 89 96 89q95 0 95 -89q0 -88 -95 -88q-96 0 -96 88zM935 943
q0 89 96 89q95 0 95 -89q0 -88 -95 -88q-96 0 -96 88z" />
    <glyph glyph-name="uFED7" unicode="&#x642;" horiz-adv-x="800" arabic-form="initial" 
d="M49 682q10 265 245 294q28 6 79 6q177 0 265 -80q87 -77 103 -266q4 -41 4 -87q2 -28 2 -54q-4 -246 -114.5 -350.5t-330.5 -104.5h-332v189h360q222 18 226 199q2 34 2 68q0 81 -14 154q-25 133 -179 133h-2q-115 -1 -131 -97q0 -108 112 -108h6q90 0 91 -90v-1
q0 -89 -76 -110q-26 -4 -52 -4q-112 0 -187 77q-4 9 -11 12q-56 63 -66 195v25zM122 1208q0 89 96 89q95 0 95 -89q0 -88 -95 -88q-96 0 -96 88zM418 1207q0 89 96 89q95 0 95 -89q0 -88 -95 -88q-96 0 -96 88z" />
    <glyph glyph-name="uFED8" unicode="&#x642;" horiz-adv-x="947" arabic-form="medial" 
d="M765 549q1 -36 1 -64q0 -58 -4 -98q42 -127 181 -158h8v-189h-20q-121 0 -258 121q-137 -121 -351 -121h-342v189h370q222 18 226 199q2 34 2 68q0 81 -14 154q-25 133 -179 133h-2q-115 -1 -131 -97q0 -108 112 -108h6q90 0 91 -90v-1q0 -89 -76 -110q-26 -4 -52 -4
q-112 0 -187 77q-4 9 -11 12q-56 63 -66 195v25q10 265 245 294q28 6 79 6q177 0 265 -80q87 -77 103 -266q4 -41 4 -87zM132 1208q0 89 96 89q95 0 95 -89q0 -88 -95 -88q-96 0 -96 88zM428 1207q0 89 96 89q95 0 95 -89q0 -88 -95 -88q-96 0 -96 88z" />
    <glyph glyph-name="u0643" unicode="&#x643;" horiz-adv-x="1600" arabic-form="isolated" 
d="M1029 641q-151 38 -175 84q-39 68 -39 131q0 51 27 104q61 121 331 278q259 165 338 165q44 0 61 -30q8 -14 8 -30q0 -58 -184 -189q-47 -39 -117 -79q-146 -86 -310 -233q184 -8 296 -45q253 -85 271 -316q5 -79 -16 -162t-91 -148q-55 -47 -139 -74q-225 -57 -507 -60
v3q-353 2 -497 99q-141 94 -150 354l-1 63q1 134 100 134t99 -127v-27q0 -301 431 -307q564 38 585 178v15q0 136 -319 219h-2z" />
    <glyph glyph-name="uFEDA" unicode="&#x6a9;" horiz-adv-x="1667" arabic-form="final" 
d="M1019 641q-151 38 -175 84q-39 68 -39 131q0 51 27 104q61 121 331 278q259 165 338 165q44 0 61 -30q8 -14 8 -30q0 -58 -184 -189q-47 -39 -117 -79q-146 -86 -310 -233q184 -8 296 -45q253 -85 271 -316q1 -71 13 -149t110 -103h30v-189h-33q-159 27 -196 157
q-86 -73 -170 -100q-225 -57 -507 -60v3q-353 2 -497 99q-141 94 -150 354l-1 63q1 134 100 134t99 -127v-27q0 -301 431 -307q564 38 585 178v15q0 136 -319 219h-2z" />
    <glyph glyph-name="uFEDB" unicode="&#x6a9;" horiz-adv-x="800" arabic-form="initial" 
d="M700 365q-21 -123 -108 -198q-53 -44 -134 -70q-225 -57 -436 -57h-36v189h163q348 40 369 178v15q0 136 -314 218q-156 39 -180 85q-39 68 -39 131q0 51 27 104q61 121 331 278q259 165 338 165q44 0 61 -30q8 -14 8 -30q0 -79 -304 -269q-145 -85 -309 -232
q184 -8 296 -45q272 -91 272 -357q0 -40 -5 -75z" />
    <glyph glyph-name="uFEDC" unicode="&#x6a9;" horiz-adv-x="850" arabic-form="medial" 
d="M698 357q34 -128 134 -128h25v-189h-24q-149 12 -211 151q-83 -68 -164 -94q-225 -57 -436 -57h-36v189h163q348 40 369 178v15q0 136 -314 218q-156 39 -180 85q-39 68 -39 131q0 51 27 104q61 121 331 278q259 165 338 165q44 0 61 -30q8 -14 8 -30q0 -79 -304 -269
q-145 -85 -309 -232q184 -8 296 -45q272 -91 272 -357q0 -40 -7 -83z" />
    <glyph glyph-name="u06AF" unicode="&#x6af;" horiz-adv-x="1600" arabic-form="isolated" 
d="M1029 641q-151 38 -175 84q-39 68 -39 131q0 51 27 104q61 121 331 278q259 165 338 165q44 0 61 -30q8 -14 8 -30q0 -58 -184 -189q-47 -39 -117 -79q-146 -86 -310 -233q184 -8 296 -45q253 -85 271 -316q5 -79 -16 -162t-91 -148q-55 -47 -139 -74q-225 -57 -507 -60
v3q-353 2 -497 99q-141 94 -150 354l-1 63q1 134 100 134t99 -127v-27q0 -301 431 -307q564 38 585 178v15q0 136 -319 219h-2zM856 1210q-9 11 -9 24q0 16 18 37q45 52 334 229q96 55 146 55q26 0 35 -17q5 -8 5 -17q0 -47 -124 -118l-234 -140q-94 -57 -147 -57
q-17 0 -24 4z" />
    <glyph glyph-name="uFB93" unicode="&#x6af;" horiz-adv-x="1667" arabic-form="final" 
d="M1019 641q-151 38 -175 84q-39 68 -39 131q0 51 27 104q61 121 331 278q259 165 338 165q44 0 61 -30q8 -14 8 -30q0 -58 -184 -189q-47 -39 -117 -79q-146 -86 -310 -233q184 -8 296 -45q253 -85 271 -316q1 -71 13 -149t110 -103h30v-189h-33q-159 27 -196 157
q-86 -73 -170 -100q-225 -57 -507 -60v3q-353 2 -497 99q-141 94 -150 354l-1 63q1 134 100 134t99 -127v-27q0 -301 431 -307q564 38 585 178v15q0 136 -319 219h-2zM856 1210q-9 11 -9 24q0 16 18 37q45 52 334 229q96 55 146 55q26 0 35 -17q5 -8 5 -17q0 -47 -124 -118
l-234 -140q-94 -57 -147 -57q-17 0 -24 4z" />
    <glyph glyph-name="uFB94" unicode="&#x6af;" horiz-adv-x="800" arabic-form="initial" 
d="M700 365q-21 -123 -108 -198q-53 -44 -134 -70q-225 -57 -436 -57h-36v189h163q348 40 369 178v15q0 136 -314 218q-156 39 -180 85q-39 68 -39 131q0 51 27 104q61 121 331 278q259 165 338 165q44 0 61 -30q8 -14 8 -30q0 -79 -304 -269q-145 -85 -309 -232
q184 -8 296 -45q272 -91 272 -357q0 -40 -5 -75zM26 1210q-9 11 -9 24q0 16 18 37q45 52 334 229q96 55 146 55q26 0 35 -17q5 -8 5 -17q0 -47 -124 -118l-234 -140q-94 -57 -147 -57q-17 0 -24 4z" />
    <glyph glyph-name="uFB95" unicode="&#x6af;" horiz-adv-x="850" arabic-form="medial" 
d="M698 357q34 -128 134 -128h25v-189h-24q-149 12 -211 151q-83 -68 -164 -94q-225 -57 -436 -57h-36v189h163q348 40 369 178v15q0 136 -314 218q-156 39 -180 85q-39 68 -39 131q0 51 27 104q61 121 331 278q259 165 338 165q44 0 61 -30q8 -14 8 -30q0 -79 -304 -269
q-145 -85 -309 -232q184 -8 296 -45q272 -91 272 -357q0 -40 -7 -83zM26 1210q-9 11 -9 24q0 16 18 37q45 52 334 229q96 55 146 55q26 0 35 -17q5 -8 5 -17q0 -47 -124 -118l-234 -140q-94 -57 -147 -57q-17 0 -24 4z" />
    <glyph glyph-name="u0644" unicode="&#x644;" horiz-adv-x="1252" arabic-form="isolated" 
d="M321 107q-1 -14 -1 -40q0 -34 2 -85q1 -243 294 -243q290 0 290 314v1094q0 179 105 179q100 -1 100 -137v-1152q-24 -313 -137 -373q-149 -114 -348 -114q-213 0 -357 96t-144 336v117q7 223 72 294q82 114 186 139q38 8 70 8q67 0 106 -36q41 -38 41 -78q0 -14 -6 -30
q-17 -56 -86 -56q-167 0 -187 -233z" />
    <glyph glyph-name="uFEDE" unicode="&#x644;" horiz-adv-x="1300" arabic-form="final" 
d="M321 107q-1 -14 -1 -40q0 -34 2 -85q1 -243 294 -243q290 0 290 314v1094q0 179 105 179q101 -1 101 -137v-789q9 -171 182 -171h24v-190q-16 -1 -31 -1q-100 0 -167 57q-20 -334 -148 -433q-147 -112 -346 -112q-213 0 -357 96t-144 336v117q7 223 72 294
q82 114 186 139q38 8 70 8q67 0 106 -36q41 -38 41 -78q0 -14 -6 -30q-17 -56 -86 -56q-167 0 -187 -233z" />
    <glyph glyph-name="uFEDF" unicode="&#x644;" horiz-adv-x="500" arabic-form="initial" 
d="M-19 229h49q213 0 213 291v678q0 128 103 128q92 0 92 -129v-686q0 -257 -140 -359q-122 -101 -285 -112h-32v189z" />
    <glyph glyph-name="uFEE0" unicode="&#x644;" horiz-adv-x="700" arabic-form="medial" 
d="M517 556q10 -326 179 -327h13v-189h-13q-149 1 -267 155l-52 -42q-157 -112 -321 -112h-67l-2 189h63q272 0 272 291l-1 677q1 128 104 128q92 0 92 -129v-641z" />
    <glyph glyph-name="u0645" unicode="&#x645;" horiz-adv-x="1272" arabic-form="isolated" 
d="M610 752q102 -18 102 -184q0 -14 -1 -30l1 -154q0 -162 148 -162q147 0 148 162v2q0 122 -96 154q-97 6 -98 96q-1 2 -1 -2q0 86 76 107q26 4 52 4q112 0 190 -81q76 -92 76 -270q0 -53 -7 -111q-29 -243 -348 -243q-277 17 -314 189q-17 77 -18 162v22q0 133 -56 133
q-29 0 -70 -27q-104 -56 -104 -239v-612q0 -128 -103 -128q-92 0 -92 129v620q0 257 140 359q99 70 180 91q58 21 117 21q38 0 78 -8z" />
    <glyph glyph-name="uFEE2" unicode="&#x645;" horiz-adv-x="1345" arabic-form="final" 
d="M851 40q-266 17 -303 189q-17 77 -18 162v22q0 133 -56 133q-29 0 -70 -27q-104 -56 -104 -239v-612q0 -128 -103 -128q-92 0 -92 129v620q0 257 140 359q99 70 180 91q58 21 117 21q38 0 75 -8q104 -32 104 -209v-6l1 -153q0 -162 148 -162q147 0 148 162v2
q0 122 -96 154q-107 6 -108 96q-1 2 -1 -2q0 86 76 107q36 4 62 4q112 0 190 -81q75 -91 75 -180v-2q-1 -103 -2 -121v-7q0 -20 6 -44q36 -81 115 -81h28v-189h-21q-114 3 -188 97q-80 -62 -163.5 -79.5t-139.5 -17.5z" />
    <glyph glyph-name="uFEE3" unicode="&#x645;" horiz-adv-x="900" arabic-form="initial" 
d="M637 420v2q-1 162 -148 162q-148 0 -148 -162l-1 -151q-20 -231 -334 -231h-36v189h50q130 0 130 150q0 122 17 198q37 172 314 189h2q317 0 346 -243q7 -58 7 -111q0 -178 -76 -270q-78 -81 -190 -81q-26 0 -52 4q-75 21 -75 106v2q1 87 98 93q96 32 96 154z" />
    <glyph glyph-name="uFEE4" unicode="&#x645;" horiz-adv-x="971" arabic-form="medial" 
d="M836 348l-7 -29q40 -90 119 -90h28v-189h-21q-114 3 -188 97q-80 -61 -139 -72q-25 -4 -50 -4q-26 0 -52 4q-76 21 -75 108t98 93q96 32 96 154v2q-1 162 -148 162q-148 0 -148 -162l-1 -151q-20 -231 -324 -231h-46v189h50q130 0 130 150q0 122 17 198q37 172 314 189h2
q317 0 346 -243q7 -47 7 -88q0 -46 -8 -87z" />
    <glyph glyph-name="u0646" unicode="&#x646;" horiz-adv-x="1300" arabic-form="isolated" 
d="M321 108q-1 -13 -1 -37q0 -33 2 -89q1 -243 344 -243q330 0 330 297v545q0 179 105 179q111 -1 111 -137v-222q-1 -132 -1 -185q0 -54 -0.5 -97.5t0.5 -43.5q-21 -313 -150 -414q-136 -111 -385 -111q-263 0 -407 96t-144 336v117q7 223 72 294q82 114 186 139q38 8 70 8
q67 0 106 -36q41 -38 41 -78q0 -14 -6 -30q-17 -56 -86 -56q-167 0 -187 -232zM609 767q0 89 96 89q95 0 95 -89q0 -88 -95 -88q-96 0 -96 88z" />
    <glyph glyph-name="uFEE6" unicode="&#x646;" horiz-adv-x="1333" arabic-form="final" 
d="M291 108q-1 -13 -1 -37q0 -33 2 -89q1 -243 344 -243q330 0 330 297v545q0 179 105 179q111 -1 111 -137v-223q9 -171 166 -171v-189h-40q-27 0 -51.5 17.5t-75.5 17.5q-21 -313 -150 -414q-136 -111 -385 -111q-263 0 -407 96t-144 336v117q7 223 72 294q82 114 186 139
q38 8 70 8q67 0 106 -36q41 -38 41 -78q0 -14 -6 -30q-17 -56 -86 -56q-167 0 -187 -232zM579 767q0 89 96 89q95 0 95 -89q0 -88 -95 -88q-96 0 -96 88z" />
    <glyph glyph-name="uFEE7" unicode="&#x646;" horiz-adv-x="600" arabic-form="initial" 
d="M-29 229h-1q353 0 353 291v112q0 128 103 128q92 0 92 -129v-120q0 -257 -140 -359q-157 -112 -395 -112h-12v189zM79 1018q0 89 96 89q95 0 95 -89q0 -88 -95 -88q-96 0 -96 88z" />
    <glyph glyph-name="uFEE8" unicode="&#x646;" horiz-adv-x="754" arabic-form="medial" 
d="M567 556q10 -326 179 -327h23v-189h-23q-149 1 -267 155l-52 -42q-157 -112 -406 -112l-41 -1v190h40q352 0 352 291l-1 112q1 128 104 128q92 0 92 -129v-76zM89 1018q0 89 96 89q95 0 95 -89q0 -88 -95 -88q-96 0 -96 88z" />
    <glyph glyph-name="u0648" unicode="&#x648;" horiz-adv-x="900" arabic-form="isolated" 
d="M812 407v-45q0 -181 -29 -296q-44 -204 -143 -315.5t-249 -161.5q-37 -8 -69 -8q-67 0 -106 36q-41 38 -41 78q0 14 5 28q19 43 94 59q184 30 243 101q120 118 131 308q1 29 1 57q0 143 -43 233q-33 81 -134 81q-147 0 -148 -162v-2q0 -122 96 -154q97 -6 115 -50
q8 -21 8 -41q0 -25 -11 -50q-22 -46 -89 -60q-26 -4 -52 -4q-112 0 -190 81q-76 92 -76 270q0 53 7 111q29 243 346 243h2q237 -14 297 -139q35 -88 35 -198z" />
    <glyph glyph-name="uFEEE" unicode="&#x648;" horiz-adv-x="964" arabic-form="final" 
d="M783 135q3 -14 3 -32q0 -17 -3 -37q-44 -204 -143 -315.5t-249 -161.5q-37 -8 -69 -8q-67 0 -106 36q-41 38 -41 78q0 14 5 28q19 43 94 59q184 30 243 101q120 118 131 308q1 29 1 57q0 143 -43 233q-33 81 -134 81q-147 0 -148 -162v-2q0 -122 96 -154q97 -6 115 -50
q8 -21 8 -41q0 -25 -11 -50q-22 -46 -89 -60q-26 -4 -52 -4q-112 0 -190 81q-76 92 -76 270q0 53 7 111q29 243 346 243h2q237 -14 297 -139q35 -88 35 -198q0 -20 -1 -45q19 -133 136 -133h35v-189q-161 2 -199 95z" />
    <glyph glyph-name="u0647" unicode="&#x647;" horiz-adv-x="800" arabic-form="isolated" 
d="M352 851q4 1 11 1q74 0 210 -147q148 -158 165 -330q1 -17 1 -34q0 -141 -132 -240q-90 -61 -177 -61q-255 0 -293 203q-12 68 -12 124q0 123 61 190q91 99 214 103q-107 97 -108 111q0 69 60 80zM290 315q42 -107 128 -107q16 0 32 4q102 24 121 130q1 12 1 22
q0 93 -148 207q-145 -103 -145 -199q0 -29 11 -57z" />
    <glyph glyph-name="uFEEA" unicode="&#x647;" horiz-adv-x="971" arabic-form="final" 
d="M992 40h-42q-292 0 -320 281v101q0 162 -148 162q-147 0 -148 -162v-2q0 -15 1 -29q11 -97 97 -125q96 0 104 -99q-7 -81 -83 -102q-26 -4 -52 -4q-112 0 -190 81q-67 81 -75 231q-1 19 -1 39q0 53 7 111q29 243 346 243h2q53 -4 146 -21v61q3 164 107 164h2
q85 -1 86 -153v-378q0 -211 114 -211q9 0 18 1h29v-189z" />
    <glyph glyph-name="uFEEB" unicode="&#x647;" horiz-adv-x="1216" arabic-form="initial" 
d="M384 229q127 13 127 186q0 12 -1 35q-14 175 -151 175q-16 0 -31 -2q-110 -13 -123 -170q-1 -23 -1 -35q0 -186 150 -189h30zM115 229q-56 111 -56 180q0 159 73 256q32 43 174 99q-88 44 -97 49q-45 25 -55 44q-19 28 -19 52q0 29 24 66q27 41 78 41q27 0 61 -9
q106 -18 472 -209q270 -133 306 -361v-1q-3 -234 -127 -317q-119 -79 -327 -79h-654v189h147zM619 225q263 16 278 155v13q0 116 -289 247q84 -159 84 -222q0 -8 -1 -17q-4 -75 -72 -176z" />
    <glyph glyph-name="uFEEC" unicode="&#x647;" horiz-adv-x="750" arabic-form="medial" 
d="M270 78q-107 -38 -244 -38h-41v189h28q323 0 323 291v42q0 128 103 128q92 0 92 -129v-50q0 -206 -87 -324q119 42 281 42h41v-189h-28q-344 0 -344 -119v-6q9 -126 170 -126q67 0 84 -54q6 -16 6 -29q0 -39 -40 -76q-38 -35 -103 -35q-31 0 -68 8q-101 24 -181 115
q-52 71 -56 185v7q0 90 64 168z" />
    <glyph glyph-name="u0629" unicode="&#x629;" horiz-adv-x="800" arabic-form="isolated" 
d="M352 851q4 1 11 1q74 0 210 -147q148 -158 165 -330q1 -17 1 -34q0 -141 -132 -240q-90 -61 -177 -61q-255 0 -293 203q-12 68 -12 124q0 123 61 190q91 99 214 103q-107 97 -108 111q0 69 60 80zM290 315q42 -107 128 -107q16 0 32 4q102 24 121 130q1 12 1 22
q0 93 -148 207q-145 -103 -145 -199q0 -29 11 -57zM156 1049q0 89 96 89q95 0 95 -89q0 -88 -95 -88q-96 0 -96 88zM432 1048q0 89 96 89q95 0 95 -89q0 -88 -95 -88q-96 0 -96 88z" />
    <glyph glyph-name="uFE94" unicode="&#x6c0;" horiz-adv-x="971" arabic-form="final" 
d="M992 40h-42q-292 0 -320 281v101q0 162 -148 162q-147 0 -148 -162v-2q0 -15 1 -29q11 -97 97 -125q96 0 104 -99q-7 -81 -83 -102q-26 -4 -52 -4q-112 0 -190 81q-67 81 -75 231q-1 19 -1 39q0 53 7 111q29 243 346 243h2q53 -4 146 -21v61q3 164 107 164h2
q85 -1 86 -153v-378q0 -211 114 -211q9 0 18 1h29v-189zM166 1079q0 89 96 89q95 0 95 -89q0 -88 -95 -88q-96 0 -96 88zM442 1078q0 89 96 89q95 0 95 -89q0 -88 -95 -88q-96 0 -96 88z" />
    <glyph glyph-name="u064A" unicode="&#x64a;" horiz-adv-x="1400" arabic-form="isolated" 
d="M673 -53h100q24 0 60 2q126 11 206 66q73 50 109 186h-327q-192 1 -192 176q0 204 112 361q102 140 339 140h50q129 0 129 -92q0 -103 -128 -104l-42 1q-265 -4 -294 -297h312q235 0 235 -157q0 -168 -65.5 -246t-114.5 -113q-80 -65 -175 -84q-53 -13 -119 -19h-123
q-127 0 -219 20q-95 20 -196.5 82t-145.5 130.5t-55 177.5q-4 37 -4 70q0 70 15 124l63 190q52 159 135 159q10 0 22 -2q67 -14 67 -81q0 -29 -10 -65l-74 -217q-19 -61 -19 -114q0 -197 244 -277q55 -13 105 -17zM676 -320q95 0 95 -88q0 -89 -95 -89q-96 0 -96 89
q0 88 96 88zM952 -319q95 0 95 -88q0 -89 -95 -89q-96 0 -96 89q0 88 96 88z" />
    <glyph glyph-name="uFEF2" unicode="&#x6cc;" horiz-adv-x="1100" arabic-form="final" 
d="M34 -58q-4 37 -4 70q0 70 15 124l85 253q33 105 97 105q18 0 38 -6q69 -21 69 -84q0 -29 -12 -66l-74 -218q-19 -61 -19 -114q0 -197 245 -277q65 -12 147 -12h61q21 0 88 3l130 30q-263 243 -263 310q-10 0 -12 29q1 51 61 96q58 44 215 44h216v-189h-259
q223 -176 223 -238l4 -40q0 -90 -65 -152.5t-237 -77.5h-133q-127 0 -219 20q-95 20 -196.5 82t-145.5 130.5t-55 177.5zM476 -560q95 0 95 -88q0 -89 -95 -89q-96 0 -96 89q0 88 96 88zM752 -559q95 0 95 -88q0 -89 -95 -89q-96 0 -96 89q0 88 96 88z" />
    <glyph glyph-name="uFEF3" unicode="&#x6cc;" horiz-adv-x="675" arabic-form="initial" 
d="M-9 229h49q353 0 353 291v112q0 128 103 128q92 0 92 -129v-120q0 -257 -140 -359q-157 -112 -395 -112h-62v189zM83 -141q95 0 95 -88q0 -89 -95 -89q-96 0 -96 89q0 88 96 88zM379 -140q95 0 95 -88q0 -89 -95 -89q-96 0 -96 89q0 88 96 88z" />
    <glyph glyph-name="uFEF4" unicode="&#x6cc;" horiz-adv-x="754" arabic-form="medial" 
d="M567 556q10 -326 179 -327h23v-189h-23q-149 1 -267 155l-52 -42q-157 -112 -406 -112l-41 -1v190h40q352 0 352 291l-1 112q1 128 104 128q92 0 92 -129v-76zM83 -141q95 0 95 -88q0 -89 -95 -89q-96 0 -96 89q0 88 96 88zM379 -140q95 0 95 -88q0 -89 -95 -89
q-96 0 -96 89q0 88 96 88z" />
    <glyph glyph-name="u0649" unicode="&#x649;" horiz-adv-x="1400" arabic-form="isolated" 
d="M673 -53h100q24 0 60 2q126 11 206 66q73 50 109 186h-327q-192 1 -192 176q0 204 112 361q102 140 339 140h50q129 0 129 -92q0 -103 -128 -104l-42 1q-265 -4 -294 -297h312q235 0 235 -157q0 -168 -65.5 -246t-114.5 -113q-80 -65 -175 -84q-53 -13 -119 -19h-123
q-127 0 -219 20q-95 20 -196.5 82t-145.5 130.5t-55 177.5q-4 37 -4 70q0 70 15 124l63 190q52 159 135 159q10 0 22 -2q67 -14 67 -81q0 -29 -10 -65l-74 -217q-19 -61 -19 -114q0 -197 244 -277q55 -13 105 -17z" />
    <glyph glyph-name="uFEF0" unicode="&#x649;" horiz-adv-x="1100" arabic-form="final" 
d="M34 -58q-4 37 -4 70q0 70 15 124l85 253q33 105 97 105q18 0 38 -6q69 -21 69 -84q0 -29 -12 -66l-74 -218q-19 -61 -19 -114q0 -197 245 -277q65 -12 147 -12h61q21 0 88 3l130 30q-263 243 -263 310q-10 0 -12 29q1 51 61 96q58 44 215 44h216v-189h-259
q223 -176 223 -238l4 -40q0 -90 -65 -152.5t-237 -77.5h-133q-127 0 -219 20q-95 20 -196.5 82t-145.5 130.5t-55 177.5z" />
    <glyph glyph-name=".notdef" horiz-adv-x="908" 
d="M334 621q0 -352 128 -352q127 0 127 352t-127 352q-128 0 -128 -352zM873 621q0 -429 -142.5 -525t-268.5 -96q-97 0 -254.5 96t-157.5 525t152.5 525t259.5 96q116 0 263.5 -96t147.5 -525z" />
    <glyph glyph-name=".null" 
 />
    <glyph glyph-name="nonmarkingreturn" horiz-adv-x="500" 
 />
    <glyph glyph-name="space" unicode=" " horiz-adv-x="262" 
 />
    <glyph glyph-name="exclam" unicode="!" horiz-adv-x="447" 
d="M221 1198q96 0 96 -180q0 -446 -17 -527t-80 -81q-62 0 -78.5 81t-16.5 527q0 180 96 180zM225 40q-78 0 -78 89q0 88 78 88t78 -88q0 -89 -78 -89z" />
    <glyph glyph-name="percent" unicode="%" horiz-adv-x="873" 
d="M635 20q-108 0 -108 89q0 88 108 88t108 -88q0 -89 -108 -89zM181 18q-15 0 -15 44q0 136 158 521q245 595 369 595q15 0 15 -44q0 -137 -159 -521q-247 -595 -368 -595zM233 1176q108 0 108 -88q0 -89 -108 -89t-108 89q0 88 108 88z" />
    <glyph glyph-name="parenleft" unicode="(" horiz-adv-x="720" 
d="M147 224q-22 111 -22 222t22 222q45 223 166.5 446.5t241.5 223.5q35 0 35 -26q0 -50 -58 -156q-134 -247 -180 -477q-24 -117 -24 -233t24 -233q46 -231 180 -477q58 -107 58 -157q0 -26 -35 -26q-120 0 -241.5 223.5t-166.5 447.5z" />
    <glyph glyph-name="parenright" unicode=")" horiz-adv-x="720" 
d="M401.5 -223.5q-121.5 -223.5 -241.5 -223.5q-35 0 -35 26q0 50 58 157q134 246 180 477q24 117 24 233t-24 233q-46 230 -180 477q-58 106 -58 156q0 26 35 26q120 0 241.5 -223.5t166.5 -446.5q22 -111 22 -222t-22 -222q-45 -224 -166.5 -447.5z" />
    <glyph glyph-name="asterisk" unicode="*" horiz-adv-x="905" 
d="M512 491q0 -173 -62 -173t-62 172q-102 -102 -126 -102q-18 0 -40 21q-21 22 -21 40q0 26 107 131q-183 0 -183 59q0 58 181 58q-105 105 -105 131q0 19 21 39q22 22 40 22q24 0 126 -104q0 175 62 175t62 -172q102 100 128 100q18 0 39 -21q21 -20 21 -39
q0 -26 -105 -131q180 0 180 -58q0 -59 -181 -59q105 -105 105 -130q0 -19 -21 -40t-40 -21q-24 0 -126 102z" />
    <glyph glyph-name="plus" unicode="+" horiz-adv-x="1164" 
d="M898 402q-24 3 -48 3q-85 0 -130 -46q-46 -45 -46 -130q0 -24 3 -48q0 -83 -32 -116q-23 -22 -65 -22t-65 22q-32 33 -32 116q3 24 3 48q0 85 -46 130q-45 46 -130 46q-24 0 -48 -3h-2q-81 0 -114 32q-21 22 -21 64q0 43 22 66q33 32 114 32q27 -4 53 -4q89 0 136 48
q48 49 48 139q0 12 -1 25q-1 17 -1 33q0 71 26 97q19 19 58 19q42 0 65 -22q32 -32 32 -113q-5 -30 -5 -58q0 -83 44 -127q44 -42 123 -42q28 0 59 5q81 0 114 -32q22 -23 22 -65t-22 -65q-33 -32 -114 -32z" />
    <glyph glyph-name="comma" unicode="," horiz-adv-x="584" 
d="M202 143q40 63 90 63q28 0 62 -17l4 -2q96 -49 96 -137q0 -8 -1 -18q-7 -97 -73 -228q-13 -28 -31 -57q-45 -80 -96 -80q-21 0 -46 12q-24 12 -48 33q-34 33 -34 57q0 9 5 18q22 43 127 89q55 30 70 62q5 13 5 25q0 36 -39 57q-19 9 -49 16q-16 4 -29 11q-34 17 -34 40
q0 16 12 40q4 8 9 16z" />
    <glyph glyph-name="hyphen" unicode="-" horiz-adv-x="960" 
d="M125 311q0 94 353 94q352 0 352 -94q0 -95 -352 -95q-353 0 -353 95z" />
    <glyph glyph-name="period" unicode="." horiz-adv-x="471" 
d="M233 40q-108 0 -108 89q0 88 108 88t108 -88q0 -89 -108 -89z" />
    <glyph glyph-name="slash" unicode="/" horiz-adv-x="659" 
d="M501 1200q28 0 28 -92q0 -149 -91 -477q-164 -591 -283 -591q-30 0 -30 92q0 149 93 477q165 591 283 591z" />
    <glyph glyph-name="zero" unicode="0" horiz-adv-x="799" 
d="M125 516q0 121 49.5 195.5t196.5 74.5h49q151 -2 200 -73t49 -179q0 -47 -8 -100q-21 -153 -237 -163q-27 -2 -50 -2q-105 0 -177 66.5t-72 180.5zM284 527q0 -117 113 -117q114 0 114 117t-114 117q-113 0 -113 -117z" />
    <glyph glyph-name="zero" unicode="&#x6f0;" horiz-adv-x="799" 
d="M125 516q0 121 49.5 195.5t196.5 74.5h49q151 -2 200 -73t49 -179q0 -47 -8 -100q-21 -153 -237 -163q-27 -2 -50 -2q-105 0 -177 66.5t-72 180.5zM284 527q0 -117 113 -117q114 0 114 117t-114 117q-113 0 -113 -117z" />
    <glyph glyph-name="zero" unicode="&#x660;" horiz-adv-x="799" 
d="M125 516q0 121 49.5 195.5t196.5 74.5h49q151 -2 200 -73t49 -179q0 -47 -8 -100q-21 -153 -237 -163q-27 -2 -50 -2q-105 0 -177 66.5t-72 180.5zM284 527q0 -117 113 -117q114 0 114 117t-114 117q-113 0 -113 -117z" />
    <glyph glyph-name="one" unicode="1" horiz-adv-x="572" 
d="M436 344q5 -109 5 -186q-1 -118 -52 -118q-14 0 -32 6q-93 30 -110 366q-2 44 -3 94q-6 465 -95 605q-24 37 -24 55q0 12 52 12q123 0 194 -110.5t71 -270.5q-4 -239 -8 -400q1 -28 2 -53z" />
    <glyph glyph-name="one" unicode="&#x6f1;" horiz-adv-x="572" 
d="M436 344q5 -109 5 -186q-1 -118 -52 -118q-14 0 -32 6q-93 30 -110 366q-2 44 -3 94q-6 465 -95 605q-24 37 -24 55q0 12 52 12q123 0 194 -110.5t71 -270.5q-4 -239 -8 -400q1 -28 2 -53z" />
    <glyph glyph-name="one" unicode="&#x661;" horiz-adv-x="572" 
d="M436 344q5 -109 5 -186q-1 -118 -52 -118q-14 0 -32 6q-93 30 -110 366q-2 44 -3 94q-6 465 -95 605q-24 37 -24 55q0 12 52 12q123 0 194 -110.5t71 -270.5q-4 -239 -8 -400q1 -28 2 -53z" />
    <glyph glyph-name="two" unicode="2" horiz-adv-x="1016" 
d="M436 344q5 -109 5 -186q-1 -118 -52 -118q-14 0 -32 6q-93 30 -110 366q-2 44 -3 94q-6 465 -95 605q-24 37 -24 55q0 12 52 12q123 0 194 -110.5t71 -271.5q12 -212 130 -212q117 0 117 139q0 34 -7 73q0 175 -89 315q-24 37 -24 55q0 12 52 12q123 0 194 -110.5
t71 -404.5q-41 -279 -232 -279q-21 0 -48 4q-66 0 -176 109z" />
    <glyph glyph-name="two" unicode="&#x6f2;" horiz-adv-x="1016" 
d="M436 344q5 -109 5 -186q-1 -118 -52 -118q-14 0 -32 6q-93 30 -110 366q-2 44 -3 94q-6 465 -95 605q-24 37 -24 55q0 12 52 12q123 0 194 -110.5t71 -271.5q12 -212 130 -212q117 0 117 139q0 34 -7 73q0 175 -89 315q-24 37 -24 55q0 12 52 12q123 0 194 -110.5
t71 -404.5q-41 -279 -232 -279q-21 0 -48 4q-66 0 -176 109z" />
    <glyph glyph-name="two" unicode="&#x662;" horiz-adv-x="1016" 
d="M436 344q5 -109 5 -186q-1 -118 -52 -118q-14 0 -32 6q-93 30 -110 366q-2 44 -3 94q-6 465 -95 605q-24 37 -24 55q0 12 52 12q123 0 194 -110.5t71 -271.5q12 -212 130 -212q117 0 117 139q0 34 -7 73q0 175 -89 315q-24 37 -24 55q0 12 52 12q123 0 194 -110.5
t71 -404.5q-41 -279 -232 -279q-21 0 -48 4q-66 0 -176 109z" />
    <glyph glyph-name="three" unicode="3" horiz-adv-x="1447" 
d="M246 454v26q-8 491 -97 631q-24 37 -24 55q0 12 52 12q123 0 194 -110.5t71 -270.5q0 -213 130 -213q120 0 120 208q0 179 -89 319q-24 37 -24 55q0 12 52 12q123 0 194 -110.5t71 -270.5q0 -212 111 -215q107 3 107 173q0 18 -1 38q0 178 -89 318q-24 37 -24 55
q0 12 52 12q123 0 193.5 -110t57 -376.5t-232.5 -278.5q-25 -2 -47 -2q-158 0 -206 122q-88 -123 -180 -123q-101 0 -202 24q3 -83 4 -113q4 -94 4 -163q-1 -118 -52 -118q-14 0 -32 6q-93 30 -110 366z" />
    <glyph glyph-name="three" unicode="&#x6f3;" horiz-adv-x="1447" 
d="M246 454v26q-8 491 -97 631q-24 37 -24 55q0 12 52 12q123 0 194 -110.5t71 -270.5q0 -213 130 -213q120 0 120 208q0 179 -89 319q-24 37 -24 55q0 12 52 12q123 0 194 -110.5t71 -270.5q0 -212 111 -215q107 3 107 173q0 18 -1 38q0 178 -89 318q-24 37 -24 55
q0 12 52 12q123 0 193.5 -110t57 -376.5t-232.5 -278.5q-25 -2 -47 -2q-158 0 -206 122q-88 -123 -180 -123q-101 0 -202 24q3 -83 4 -113q4 -94 4 -163q-1 -118 -52 -118q-14 0 -32 6q-93 30 -110 366z" />
    <glyph glyph-name="three" unicode="&#x663;" horiz-adv-x="1447" 
d="M246 454v26q-8 491 -97 631q-24 37 -24 55q0 12 52 12q123 0 194 -110.5t71 -270.5q0 -213 130 -213q120 0 120 208q0 179 -89 319q-24 37 -24 55q0 12 52 12q123 0 194 -110.5t71 -270.5q0 -212 111 -215q107 3 107 173q0 18 -1 38q0 178 -89 318q-24 37 -24 55
q0 12 52 12q123 0 193.5 -110t57 -376.5t-232.5 -278.5q-25 -2 -47 -2q-158 0 -206 122q-88 -123 -180 -123q-101 0 -202 24q3 -83 4 -113q4 -94 4 -163q-1 -118 -52 -118q-14 0 -32 6q-93 30 -110 366z" />
    <glyph glyph-name="four" unicode="4" horiz-adv-x="1317" 
d="M255 311q-17 101 -17 238q0 422 -89 562q-24 37 -24 55q0 12 52 12q123 0 194 -110.5t71 -275.5q0 -218 190 -218q0 372 71 471q55 77 223 77q27 0 55 -1q198 -13 198 -115q0 -70 -65 -70q-24 0 -57 8q-38 9 -70 9q-151 0 -151 -169q0 -200 216 -200q135 0 135 -97
q0 -102 -183 -124q-61 -8 -130 -8q-170 0 -436 57l3 -190v0v-64q-1 -118 -52 -118q-14 0 -32 6q-77 24 -102 265z" />
    <glyph glyph-name="four" unicode="&#x6f4;" horiz-adv-x="1317" 
d="M255 311q-17 101 -17 238q0 422 -89 562q-24 37 -24 55q0 12 52 12q123 0 194 -110.5t71 -275.5q0 -218 190 -218q0 372 71 471q55 77 223 77q27 0 55 -1q198 -13 198 -115q0 -70 -65 -70q-24 0 -57 8q-38 9 -70 9q-151 0 -151 -169q0 -200 216 -200q135 0 135 -97
q0 -102 -183 -124q-61 -8 -130 -8q-170 0 -436 57l3 -190v0v-64q-1 -118 -52 -118q-14 0 -32 6q-77 24 -102 265z" />
    <glyph glyph-name="four" unicode="&#x664;" horiz-adv-x="1317" 
d="M255 311q-17 101 -17 238q0 422 -89 562q-24 37 -24 55q0 12 52 12q123 0 194 -110.5t71 -275.5q0 -218 190 -218q0 372 71 471q55 77 223 77q27 0 55 -1q198 -13 198 -115q0 -70 -65 -70q-24 0 -57 8q-38 9 -70 9q-151 0 -151 -169q0 -200 216 -200q135 0 135 -97
q0 -102 -183 -124q-61 -8 -130 -8q-170 0 -436 57l3 -190v0v-64q-1 -118 -52 -118q-14 0 -32 6q-77 24 -102 265z" />
    <glyph glyph-name="five" unicode="5" horiz-adv-x="1267" 
d="M632 951q-341 -212 -346 -477v-7q10 -220 132 -227h9q126 0 126 147q0 31 -7 70q-4 25 -4 47q0 81 78 81t78 -76q0 -21 -4 -46q-8 -42 -8 -86q0 -134 118 -134h9q117 6 117 218q0 54 -8 126q-18 143 -174 266zM530 1075l-39 38q-27 27 -27 67q0 21 15 41q22 18 60 18
q31 0 69 -13q100 -34 190 -120q301 -227 338 -564q1 -16 1 -32q0 -26 -3 -52q-13 -263 -100 -339.5t-200 -78.5h-4q-133 2 -205 148q-96 -147 -222 -147h-3q-75 0 -166 69q-109 82 -109 381q10 214 147 369q115 130 258 215z" />
    <glyph glyph-name="five" unicode="&#x6f5;" horiz-adv-x="1267" 
d="M632 951q-341 -212 -346 -477v-7q10 -220 132 -227h9q126 0 126 147q0 31 -7 70q-4 25 -4 47q0 81 78 81t78 -76q0 -21 -4 -46q-8 -42 -8 -86q0 -134 118 -134h9q117 6 117 218q0 54 -8 126q-18 143 -174 266zM530 1075l-39 38q-27 27 -27 67q0 21 15 41q22 18 60 18
q31 0 69 -13q100 -34 190 -120q301 -227 338 -564q1 -16 1 -32q0 -26 -3 -52q-13 -263 -100 -339.5t-200 -78.5h-4q-133 2 -205 148q-96 -147 -222 -147h-3q-75 0 -166 69q-109 82 -109 381q10 214 147 369q115 130 258 215z" />
    <glyph glyph-name="five" unicode="&#x665;" horiz-adv-x="1267" 
d="M632 951q-341 -212 -346 -477v-7q10 -220 132 -227h9q126 0 126 147q0 31 -7 70q-4 25 -4 47q0 81 78 81t78 -76q0 -21 -4 -46q-8 -42 -8 -86q0 -134 118 -134h9q117 6 117 218q0 54 -8 126q-18 143 -174 266zM530 1075l-39 38q-27 27 -27 67q0 21 15 41q22 18 60 18
q31 0 69 -13q100 -34 190 -120q301 -227 338 -564q1 -16 1 -32q0 -26 -3 -52q-13 -263 -100 -339.5t-200 -78.5h-4q-133 2 -205 148q-96 -147 -222 -147h-3q-75 0 -166 69q-109 82 -109 381q10 214 147 369q115 130 258 215z" />
    <glyph glyph-name="six" unicode="6" horiz-adv-x="972" 
d="M457 1032q-68 -22 -100.5 -70t-32.5 -105v-33q6 -170 290 -170q204 0 204 -89q0 -117 -214 -458q-21 -38 -68 -57q-20 -9 -38 -9q-19 0 -37 11q-33 18 -35 57q-1 7 -1 13q0 35 13 54l161 284q-474 0 -474 345q0 118 37 201q41 94 124 148q77 61 216 69v2q-1 0 31 0
q130 0 209 -52q88 -71 99 -181q1 -12 1 -26t-1 -27q-13 -78 -97 -86q6 0 1 2q-15 -2 -21 -2q-71 0 -85 87q-31 96 -137 96q-20 0 -45 -4z" />
    <glyph glyph-name="six" unicode="&#x6f6;" horiz-adv-x="972" 
d="M457 1032q-68 -22 -100.5 -70t-32.5 -105v-33q6 -170 290 -170q204 0 204 -89q0 -117 -214 -458q-21 -38 -68 -57q-20 -9 -38 -9q-19 0 -37 11q-33 18 -35 57q-1 7 -1 13q0 35 13 54l161 284q-474 0 -474 345q0 118 37 201q41 94 124 148q77 61 216 69v2q-1 0 31 0
q130 0 209 -52q88 -71 99 -181q1 -12 1 -26t-1 -27q-13 -78 -97 -86q6 0 1 2q-15 -2 -21 -2q-71 0 -85 87q-31 96 -137 96q-20 0 -45 -4z" />
    <glyph glyph-name="six" unicode="&#x666;" horiz-adv-x="972" 
d="M457 1032q-68 -22 -100.5 -70t-32.5 -105v-33q6 -170 290 -170q204 0 204 -89q0 -117 -214 -458q-21 -38 -68 -57q-20 -9 -38 -9q-19 0 -37 11q-33 18 -35 57q-1 7 -1 13q0 35 13 54l161 284q-474 0 -474 345q0 118 37 201q41 94 124 148q77 61 216 69v2q-1 0 31 0
q130 0 209 -52q88 -71 99 -181q1 -12 1 -26t-1 -27q-13 -78 -97 -86q6 0 1 2q-15 -2 -21 -2q-71 0 -85 87q-31 96 -137 96q-20 0 -45 -4z" />
    <glyph glyph-name="seven" unicode="7" horiz-adv-x="1074" 
d="M534 298l181 675q52 185 154 185h11q64 -6 64 -80q0 -38 -14 -92l-205 -753q-47 -193 -154 -193h-76q-104 0 -151 193l-205 752q-14 54 -14 92q0 75 73 81v0h2q102 0 154 -185z" />
    <glyph glyph-name="seven" unicode="&#x6f7;" horiz-adv-x="1074" 
d="M534 298l181 675q52 185 154 185h11q64 -6 64 -80q0 -38 -14 -92l-205 -753q-47 -193 -154 -193h-76q-104 0 -151 193l-205 752q-14 54 -14 92q0 75 73 81v0h2q102 0 154 -185z" />
    <glyph glyph-name="seven" unicode="&#x667;" horiz-adv-x="1074" 
d="M534 298l181 675q52 185 154 185h11q64 -6 64 -80q0 -38 -14 -92l-205 -753q-47 -193 -154 -193h-76q-104 0 -151 193l-205 752q-14 54 -14 92q0 75 73 81v0h2q102 0 154 -185z" />
    <glyph glyph-name="eight" unicode="8" horiz-adv-x="1074" 
d="M354 225q-52 -185 -154 -185h-2v0q-73 6 -73 81q0 38 14 92l205 752q47 193 151 193h76q107 0 154 -193l205 -753q14 -54 14 -92q0 -74 -64 -80h-11q-102 0 -154 185l-181 675z" />
    <glyph glyph-name="eight" unicode="&#x6f8;" horiz-adv-x="1074" 
d="M354 225q-52 -185 -154 -185h-2v0q-73 6 -73 81q0 38 14 92l205 752q47 193 151 193h76q107 0 154 -193l205 -753q14 -54 14 -92q0 -74 -64 -80h-11q-102 0 -154 185l-181 675z" />
    <glyph glyph-name="eight" unicode="&#x668;" horiz-adv-x="1074" 
d="M354 225q-52 -185 -154 -185h-2v0q-73 6 -73 81q0 38 14 92l205 752q47 193 151 193h76q107 0 154 -193l205 -753q14 -54 14 -92q0 -74 -64 -80h-11q-102 0 -154 185l-181 675z" />
    <glyph glyph-name="nine" unicode="9" horiz-adv-x="989" 
d="M485 1055q-152 0 -168 -197q-1 -16 -1 -30q0 -174 166 -174q178 0 180 210q-20 191 -177 191zM665 508q-99 -51 -167 -51h-16q-120 0 -190 43q-167 102 -167 304t84.5 323.5t301.5 126.5l37 -6q166 -18 241 -140q70 -115 70 -465q0 -42 -1 -87l-2 -385v-5
q0 -126 -104 -126q-87 0 -89 133z" />
    <glyph glyph-name="nine" unicode="&#x6f9;" horiz-adv-x="989" 
d="M485 1055q-152 0 -168 -197q-1 -16 -1 -30q0 -174 166 -174q178 0 180 210q-20 191 -177 191zM665 508q-99 -51 -167 -51h-16q-120 0 -190 43q-167 102 -167 304t84.5 323.5t301.5 126.5l37 -6q166 -18 241 -140q70 -115 70 -465q0 -42 -1 -87l-2 -385v-5
q0 -126 -104 -126q-87 0 -89 133z" />
    <glyph glyph-name="nine" unicode="&#x669;" horiz-adv-x="989" 
d="M485 1055q-152 0 -168 -197q-1 -16 -1 -30q0 -174 166 -174q178 0 180 210q-20 191 -177 191zM665 508q-99 -51 -167 -51h-16q-120 0 -190 43q-167 102 -167 304t84.5 323.5t301.5 126.5l37 -6q166 -18 241 -140q70 -115 70 -465q0 -42 -1 -87l-2 -385v-5
q0 -126 -104 -126q-87 0 -89 133z" />
    <glyph glyph-name="colon" unicode=":" horiz-adv-x="521" 
d="M238 133q-113 0 -113 89q0 88 113 88q133 0 133 -88q0 -89 -133 -89zM238 490q-113 0 -113 89q0 88 113 88q133 0 133 -88q0 -89 -133 -89z" />
    <glyph glyph-name="equal" unicode="=" horiz-adv-x="1010" 
d="M125 135q0 94 378 94q377 0 377 -94q0 -95 -377 -95q-378 0 -378 95zM125 495q0 94 378 94q377 0 377 -94q0 -95 -377 -95q-378 0 -378 95z" />
    <glyph glyph-name="bracketleft" unicode="[" horiz-adv-x="765" 
d="M519 -247q116 0 116 -97t-159 -97q-176 0 -263.5 143.5t-87.5 843.5t87.5 843.5t263.5 143.5q159 0 159 -97t-116 -97q-195 0 -195 -793t195 -793z" />
    <glyph glyph-name="bracketright" unicode="]" horiz-adv-x="765" 
d="M436 546q0 793 -195 793q-116 0 -116 97t159 97q176 0 263.5 -143.5t87.5 -843.5t-87.5 -843.5t-263.5 -143.5q-159 0 -159 97t116 97q195 0 195 793z" />
    <glyph glyph-name="braceleft" unicode="{" horiz-adv-x="816" 
d="M434 848q0 -176 -55 -254q-46 -69 -46 -138t46 -137q72 -104 72 -339q0 -260 87 -260q15 0 29 7q3 1 6 1q31 0 91 -94q22 -33 22 -50q0 -25 -93 -25q-182 0 -264 49.5t-82 317.5q0 303 -89 434q-33 48 -33 96t33 98q89 129 89 462q0 298 82 347.5t264 49.5q93 0 93 -25
q0 -17 -22 -50q-59 -93 -104 -93q-8 0 -18 4q-17 6 -30 6q-88 0 -88 -185q0 -46 4 -108q6 -62 6 -114z" />
    <glyph glyph-name="braceright" unicode="}" horiz-adv-x="816" 
d="M383 962q4 62 4 108q0 185 -88 185q-13 0 -30 -6q-10 -4 -18 -4q-45 0 -104 93q-22 33 -22 50q0 25 93 25q182 0 264 -49.5t82 -347.5q0 -333 89 -462q33 -50 33 -98t-33 -96q-89 -131 -89 -434q0 -268 -82 -317.5t-264 -49.5q-93 0 -93 25q0 17 22 50q60 94 91 94
q3 0 6 -1q14 -7 29 -7q87 0 87 260q0 235 72 339q46 68 46 137t-46 138q-55 78 -55 254q0 52 6 114z" />
    <glyph glyph-name="guillemotleft" unicode="&#xab;" horiz-adv-x="1076" 
d="M543 24q0 -4 -23 -4q-124 0 -307 216q-88 104 -88 202q0 100 88 203q184 212 308 212q23 0 23 -3q0 -42 -96 -159q-101 -125 -101 -253t101 -253q95 -119 95 -161zM945 24q0 -4 -23 -4q-124 0 -308 216q-87 103 -87 202t88 202q184 212 308 212q23 0 23 -3
q0 -42 -96 -158q-101 -125 -101 -253t101 -253q95 -119 95 -161z" />
    <glyph glyph-name="guillemotright" unicode="&#xbb;" horiz-adv-x="1076" 
d="M623 185q101 125 101 253t-101 253q-96 117 -96 159q0 3 23 3q124 0 308 -212q88 -103 88 -203q0 -98 -88 -202q-183 -216 -307 -216q-23 0 -23 4q0 42 95 161zM221 185q101 125 101 253t-101 253q-96 116 -96 158q0 3 23 3q124 0 308 -212q88 -103 88 -202t-87 -202
q-184 -216 -308 -216q-23 0 -23 4q0 42 95 161z" />
    <glyph glyph-name="multiply" unicode="&#xd7;" horiz-adv-x="959" 
d="M634 121q-73 97 -157 97q-83 0 -156 -97q-59 -58 -104 -58q-31 0 -62 30q-30 31 -30 62q0 45 58 104q97 73 97 156q0 84 -97 157q-58 58 -58 104q0 30 30 61q31 30 62 30q46 0 104 -57q77 -103 164 -103q77 0 149 83q64 74 111 74q26 0 54 -27q30 -31 30 -62
q0 -45 -57 -102q-103 -74 -103 -158t102 -157q57 -57 57 -102q0 -32 -29 -62q-31 -30 -62 -30q-45 0 -103 57z" />
    <glyph glyph-name="divide" unicode="&#xf7;" horiz-adv-x="1010" 
d="M484 20q-108 0 -108 89q0 88 108 88t108 -88q0 -89 -108 -89zM484 850q108 0 108 -88q0 -89 -108 -89t-108 89q0 88 108 88zM125 436q0 94 378 94q377 0 377 -94q0 -95 -377 -95q-378 0 -378 95z" />
    <glyph glyph-name="zeronojoin" unicode="&#x200c;" horiz-adv-x="95" 
d="M95 -20h-95v1468h95v-1468z" />
    <glyph glyph-name="zerojoin" unicode="&#x200d;" horiz-adv-x="93" 
d="M217 1296l-62 -62l-60 60v-1314h-95v1313l-59 -59l-62 62l107 107l-107 107l62 62l107 -107l107 107l62 -62l-107 -107z" />
    <glyph glyph-name="lefttoright" unicode="&#x200e;" horiz-adv-x="34" 
d="M224 1190l-100 -102l-25 22l66 65h-131v-1175h-34v1207h160l-61 61l25 23z" />
    <glyph glyph-name="righttoleft" unicode="&#x200f;" horiz-adv-x="34" 
d="M34 0h-34v1175h-131l63 -65l-21 -22l-103 102l103 101l21 -23l-61 -61h163v-1207z" />
    <glyph glyph-name="quoteleft" unicode="&#x2018;" horiz-adv-x="449" 
d="M209 937q-109 0 -109 107q0 108 58 223.5t169 115.5q72 0 72 -50q0 -28 -21 -70q-60 -119 -60 -223q0 -103 -109 -103z" />
    <glyph glyph-name="quoteright" unicode="&#x2019;" horiz-adv-x="449" 
d="M290 1383q109 0 109 -107q0 -108 -58 -223.5t-169 -115.5q-72 0 -72 50q0 28 21 70q60 119 60 223q0 103 109 103z" />
    <glyph glyph-name="quotedblleft" unicode="&#x201c;" horiz-adv-x="690" 
d="M159 1033q-59 0 -59 67q0 99 50.5 199t126.5 100q23 0 23 -7q0 -19 -18 -55q-64 -127 -64 -241q0 -63 -59 -63zM419 1033q-59 0 -59 67q0 99 50.5 199t126.5 100q23 0 23 -7q0 -19 -18 -55q-64 -127 -64 -241q0 -63 -59 -63z" />
    <glyph glyph-name="quotedblright" unicode="&#x201d;" horiz-adv-x="690" 
d="M501 1399q59 0 59 -67q0 -99 -50.5 -199t-126.5 -100q-23 0 -23 7q0 19 18 55q64 127 64 241q0 63 59 63zM241 1399q59 0 59 -67q0 -99 -50.5 -199t-126.5 -100q-23 0 -23 7q0 19 18 55q64 127 64 241q0 63 59 63z" />
    <glyph glyph-name="guilsinglleft" unicode="&#x2039;" horiz-adv-x="719" 
d="M565 941q0 -136 -114 -228q-93 -74 -93 -156q0 -80 91 -154q137 -112 140 -261v-11q0 -91 -25 -91q-7 0 -15 3q-87 29 -327 282q-97 104 -97 215q0 144 162 312q181 187 249 187q18 0 24 -41q5 -29 5 -57z" />
    <glyph glyph-name="guilsinglright" unicode="&#x203a;" horiz-adv-x="719" 
d="M154 998q6 41 24 41q68 0 249 -187q162 -168 162 -312q0 -111 -97 -215q-240 -253 -327 -282q-8 -3 -15 -3q-25 0 -25 91v11q3 149 140 261q91 74 91 154q0 82 -93 156q-114 92 -114 228q0 28 5 57z" />
    <glyph glyph-name="u060C" unicode="&#x60c;" horiz-adv-x="625" 
d="M433 127q-20 -100 -119 -90h-2q-109 13 -135 103q-27 88 -14 228q3 28 9 59q17 116 100 108q25 -2 54 -13q53 -22 50 -54q-5 -45 -81 -121q-39 -46 -42 -78q-6 -58 60 -66q20 -1 48 3q17 2 30 0q50 -4 45 -59q-1 -11 -3 -20z" />
    <glyph glyph-name="u061B" unicode="&#x61b;" horiz-adv-x="592" 
d="M461 456q-10 -109 -115 -109h-4q-118 2 -155 96q-37 90 -37 237q0 31 2 65q6 124 96 124q27 0 59 -8q59 -19 59 -54q0 -48 -73 -136q-35 -52 -35 -85q0 -60 67 -60q21 0 51 8q17 3 31 3q55 0 55 -61q0 -10 -1 -20zM221 128q0 89 96 89q95 0 95 -89q0 -88 -95 -88
q-96 0 -96 88z" />
    <glyph glyph-name="u061F" unicode="&#x61f;" horiz-adv-x="888" 
d="M563 694q148 0 155 -174v-21q0 -152 -93 -153q-4 -1 -2 -1q-69 0 -69 23q0 4 3 13q4 18 4 35q0 94 -123 94h-25q-11 -1 -19 -1q-97 0 -183 85t-86 359q0 27 1 56q9 300 273 300q279 0 326 -77q33 -55 33 -125q0 -34 -8 -71q-20 -96 -107 -96h-3q-76 1 -76 41q0 1 1 6v19
q0 114 -111 114q-119 0 -119 -213t228 -213zM531 128q0 89 96 89q95 0 95 -89q0 -88 -95 -88q-96 0 -96 88z" />
    <glyph glyph-name="u0640" unicode="&#x640;" horiz-adv-x="289" 
d="M305 40h-327v189h327v-189z" />
    <glyph glyph-name="u064B" unicode="&#x64b;" 
d="M485 1735l-385 -120q-6 -2 -15 -2q-44 0 -44 47q0 36 42 49l371 118q9 3 21 3q50 0 50 -48q0 -35 -40 -47zM494 1533l-384 -120q-6 -2 -15 -2q-44 0 -44 47q0 36 41 49l371 118q9 3 21 3q51 0 51 -48q0 -34 -41 -47z" />
    <glyph glyph-name="u064C" unicode="&#x64c;" 
d="M536 1762q0 -106 -101 -183q36 -25 36 -53q0 -34 -40 -34q-31 0 -67 28q-220 -116 -308 -116q-52 0 -52 43q0 34 41 45q68 18 68 79q0 28 -39 28q-28 0 -53 -15q-15 -9 -26 -9q-24 0 -24 25q0 20 19 39q41 41 103 41q92 0 92 -84q0 -30 -17 -66q58 22 117 59
q-44 46 -44 103q0 70 51.5 126.5t120.5 56.5q49 0 86 -32.5t37 -80.5zM448 1728q0 57 -55 57q-27 0 -49 -26.5t-22 -53.5q0 -45 47 -70q27 8 53 37t26 56z" />
    <glyph glyph-name="u064D" unicode="&#x64d;" 
d="M483 -711l-385 -120q-6 -2 -15 -2q-44 0 -44 47q0 36 42 49l371 118q9 3 21 3q50 0 50 -48q0 -35 -40 -47zM492 -904l-384 -119q-6 -2 -15 -2q-44 0 -44 46q0 36 41 49l372 119q9 3 20 3q51 0 51 -48q0 -35 -41 -48z" />
    <glyph glyph-name="u064E" unicode="&#x64e;" 
d="M494 1533l-384 -120q-6 -2 -15 -2q-44 0 -44 47q0 36 41 49l371 118q9 3 21 3q51 0 51 -48q0 -34 -41 -47z" />
    <glyph glyph-name="u064F" unicode="&#x64f;" 
d="M536 1762q0 -106 -101 -183q36 -25 36 -53q0 -34 -40 -34q-31 0 -67 28q-220 -116 -308 -116q-52 0 -52 43q0 34 41 45q148 39 240 97q-44 46 -44 103q0 70 51.5 126.5t120.5 56.5q49 0 86 -32.5t37 -80.5zM448 1728q0 57 -55 57q-27 0 -49 -26.5t-22 -53.5q0 -45 47 -70
q27 8 53 37t26 56z" />
    <glyph glyph-name="u0650" unicode="&#x650;" 
d="M494 -723l-384 -120q-6 -2 -15 -2q-44 0 -44 47q0 36 41 49l371 118q9 3 21 3q51 0 51 -48q0 -34 -41 -47z" />
    <glyph glyph-name="u0651" unicode="&#x651;" 
d="M515 1776q7 -35 7 -66q0 -78 -32 -130q-38 -63 -111 -63q-70 0 -94 68q-38 -105 -139 -105q-96 0 -96 126q0 55 23 104q13 27 35 27q32 0 27 -46q-11 -88 40 -88q73 0 91 129q6 43 36 43q28 0 29 -40q4 -100 63 -100q68 0 50 127q-1 7 -1 15q0 45 32 45q31 0 40 -46z" />
    <glyph glyph-name="u0652" unicode="&#x652;" 
d="M475 1685q0 -77 -52 -131t-128 -54q-72 0 -114 45.5t-42 117.5q0 94 59 149q48 46 105 46q76 0 124 -48.5t48 -124.5zM399 1667q0 41 -33 66.5t-75 25.5q-30 0 -52.5 -27.5t-22.5 -58.5q0 -73 93 -73q32 0 59 18q31 19 31 49z" />
    <glyph glyph-name="uE820" unicode="&#xe820;" 
d="M502 1213l-384 -120q-6 -2 -15 -2q-44 0 -44 47q0 36 41 49l371 118q10 3 21 3q51 0 51 -48q0 -34 -41 -47z" />
    <glyph glyph-name="uE821" unicode="&#xe821;" 
d="M553 1460q0 -106 -101 -183q36 -25 36 -53q0 -34 -40 -34q-31 0 -67 28q-220 -116 -308 -116q-52 0 -52 43q0 34 41 45q148 39 240 97q-44 46 -44 103q0 70 51.5 126.5t120.5 56.5q49 0 86 -32t37 -81zM465 1426q0 57 -55 57q-27 0 -49 -26.5t-22 -53.5q0 -45 47 -70
q27 8 53 37t26 56z" />
    <glyph glyph-name="uE822" unicode="&#xe822;" 
d="M465 1139q0 -76 -52 -130t-128 -54q-72 0 -114 45t-42 117q0 94 59 150q48 45 105 45q77 0 124.5 -48t47.5 -125zM389 1121q0 41 -34 68q-32 24 -73 24q-31 0 -53 -27t-22 -58q0 -73 92 -73q32 0 59 17q31 20 31 49z" />
    <glyph glyph-name="uE823" unicode="&#xe823;" 
d="M487 1232l-385 -120q-7 -2 -15 -2q-44 0 -44 47q0 36 42 49l371 118q9 3 21 3q50 0 50 -48q0 -34 -40 -47zM496 1030l-384 -120q-7 -2 -15 -2q-44 0 -44 47q0 36 41 49l371 118q9 3 21 3q51 0 51 -48q0 -34 -41 -47z" />
    <glyph glyph-name="uE824" unicode="&#xe824;" 
d="M537 1216q0 -106 -101 -183q36 -25 36 -53q0 -34 -40 -34q-31 0 -67 28q-220 -116 -308 -116q-52 0 -52 43q0 34 41 45q68 18 68 79q0 28 -39 28q-28 0 -53 -15q-15 -9 -26 -9q-24 0 -24 25q0 20 19 39q41 41 103 41q92 0 92 -84q0 -30 -17 -66q58 22 117 59
q-44 46 -44 103q0 69 51.5 126t120.5 57q49 0 86 -32.5t37 -80.5zM449 1182q0 57 -55 57q-27 0 -49 -26.5t-22 -53.5q0 -45 47 -70q27 8 53 37t26 56z" />
    <glyph glyph-name="uE825" unicode="&#xe825;" 
d="M510 1303q7 -35 7 -66q0 -77 -31 -130q-39 -63 -112 -63q-70 0 -94 68q-38 -105 -139 -105q-96 0 -96 126q0 56 23 104q13 27 35 27q33 0 27 -46q-10 -88 40 -88q73 0 91 129q6 43 36 43q28 0 29 -40q4 -100 63 -100q68 0 50 127q-1 8 -1 15q0 45 32 45q31 0 40 -46z" />
    <glyph glyph-name="uE826" unicode="&#xe826;" 
d="M403 -455l-384 -120q-6 -2 -15 -2q-44 0 -44 47q0 35 41 49l371 118q10 3 21 3q51 0 51 -48q0 -35 -41 -47z" />
    <glyph glyph-name="uE827" unicode="&#xe827;" 
d="M380 -460l-385 -120q-7 -2 -15 -2q-44 0 -44 47q0 36 42 49l371 118q9 3 21 3q50 0 50 -48q0 -34 -40 -47zM389 -653l-384 -119q-7 -2 -15 -2q-44 0 -44 46q0 36 41 49l372 119q9 3 20 3q51 0 51 -48q0 -35 -41 -48z" />
    <glyph glyph-name="uE828" unicode="&#xe828;" 
d="M518 1319q7 -35 7 -66q0 -77 -32 -130q-38 -63 -111 -63q-70 0 -94 68q-38 -105 -139 -105q-96 0 -96 126q0 56 23 104q12 27 35 27q32 0 27 -46q-11 -88 40 -88q73 0 91 129q6 43 36 43q27 0 29 -40q3 -100 63 -100q67 0 50 127q-1 8 -1 15q0 45 32 45q31 0 40 -46z
M508 1502l-384 -120q-6 -2 -15 -2q-44 0 -44 47q0 36 41 49l371 118q9 3 21 3q51 0 51 -48q0 -34 -41 -47z" />
    <glyph glyph-name="uE829" unicode="&#xe829;" 
d="M518 1419q7 -35 7 -66q0 -77 -32 -130q-38 -63 -111 -63q-70 0 -94 68q-38 -105 -139 -105q-96 0 -96 126q0 56 23 104q12 27 35 27q32 0 27 -46q-11 -88 40 -88q73 0 91 129q6 43 36 43q27 0 29 -40q3 -100 63 -100q67 0 50 127q-1 8 -1 15q0 45 32 45q31 0 40 -46z
M533 1838q0 -106 -101 -183q36 -25 36 -53q0 -34 -40 -34q-31 0 -67 28q-220 -116 -308 -116q-52 0 -52 43q0 34 41 45q148 39 240 97q-44 46 -44 103q0 69 51.5 126t120.5 57q49 0 86 -32.5t37 -80.5zM445 1804q0 57 -55 57q-27 0 -49 -26.5t-22 -53.5q0 -45 47 -70
q27 8 53 37t26 56z" />
    <glyph glyph-name="uE82A" unicode="&#xe82a;" 
d="M518 1429q7 -35 7 -66q0 -77 -32 -130q-38 -63 -111 -63q-70 0 -94 68q-38 -105 -139 -105q-96 0 -96 126q0 56 23 104q12 27 35 27q32 0 27 -46q-11 -88 40 -88q73 0 91 129q6 43 36 43q27 0 29 -40q3 -100 63 -100q67 0 50 127q-1 8 -1 15q0 45 32 45q31 0 40 -46z
M491 1819l-385 -120q-6 -2 -15 -2q-44 0 -44 47q0 36 42 49l371 118q10 3 21 3q50 0 50 -48q0 -34 -40 -47zM500 1617l-384 -120q-6 -2 -15 -2q-44 0 -44 47q0 36 41 49l371 118q10 3 21 3q51 0 51 -48q0 -34 -41 -47z" />
    <glyph glyph-name="uE82B" unicode="&#xe82b;" 
d="M515 1425q7 -36 7 -66q0 -78 -32 -130q-39 -63 -111 -63q-70 0 -94 68q-38 -105 -139 -105q-96 0 -96 126q0 55 23 104q12 27 35 27q32 0 27 -46q-11 -88 40 -88q73 0 91 129q6 43 36 43q27 0 29 -40q3 -100 63 -100q67 0 50 127q-1 7 -1 15q0 45 32 45q30 0 40 -46z
M538 1845q0 -106 -101 -183q36 -25 36 -53q0 -34 -40 -34q-31 0 -67 28q-220 -116 -308 -116q-52 0 -52 43q0 34 41 45q68 18 68 79q0 28 -39 28q-28 0 -53 -15q-15 -9 -26 -9q-24 0 -24 25q0 20 19 39q41 41 103 41q92 0 92 -84q0 -30 -17 -66q58 22 117 59q-44 46 -44 103
q0 69 51.5 126t120.5 57q49 0 86 -32.5t37 -80.5zM450 1811q0 57 -55 57q-27 0 -49 -26.5t-22 -53.5q0 -45 47 -70q27 8 53 37t26 56z" />
    </font>
</defs>
</svg>
